<svg width="24" height="24" viewBox="0 0 24 24" fill="none" xmlns="http://www.w3.org/2000/svg">
<g id="heart">
<path id="Vector" d="M7.4989 2.99121C4.4613 2.99121 1.9989 5.45322 1.9989 8.49122C1.9989 11.6752 3.8124 14.6792 6.8114 17.4292C7.835 18.3672 8.9371 19.1902 10.0301 19.9292C10.4132 20.1872 10.7715 20.4212 11.0927 20.6162C11.2885 20.7352 11.4176 20.8212 11.4989 20.8662C11.8009 21.0343 12.1969 21.0343 12.4989 20.8662C12.5802 20.8212 12.7093 20.7352 12.9051 20.6162C13.2263 20.4212 13.5846 20.1872 13.9677 19.9292C15.0607 19.1902 16.1628 18.3672 17.1864 17.4292C20.1854 14.6792 21.9989 11.6752 21.9989 8.49122C21.9989 5.45322 19.5365 2.99121 16.4989 2.99121C14.7737 2.99121 13.0893 3.93122 12.0301 5.30323C10.9973 3.90722 9.3188 2.99121 7.4989 2.99121ZM7.4989 4.99122C8.7128 4.99122 9.8464 5.60723 10.4989 6.55323C10.5623 6.64523 11.0622 7.38023 11.1551 7.52223C11.542 8.11523 12.4052 8.13323 12.8114 7.55323C12.9102 7.41223 13.4305 6.68021 13.4989 6.58521C14.18 5.63321 15.3721 4.99122 16.4989 4.99122C18.4319 4.99122 19.9989 6.55822 19.9989 8.49122C19.9989 10.9942 18.4374 13.5212 15.8114 15.9292C14.8662 16.7952 13.859 17.5852 12.8427 18.2722C12.5354 18.4803 12.2613 18.6423 11.9989 18.8033C11.7365 18.6423 11.4624 18.4803 11.1551 18.2722C10.1388 17.5852 9.1316 16.7952 8.1864 15.9292C5.5604 13.5212 3.9989 10.9942 3.9989 8.49122C3.9989 6.55822 5.5659 4.99122 7.4989 4.99122Z" fill="#333D4B"/>
</g>
</svg>
