<svg width="20" height="26" viewBox="0 0 20 26" fill="none" xmlns="http://www.w3.org/2000/svg">
<g id="zGef8B">
<g id="Group">
<path id="Vector" d="M19.3782 9.03064C15.6583 11.1201 15.8349 16.6864 20 18.6037C19.9856 18.6765 19.9794 18.7582 19.9532 18.8329C19.3233 20.6742 18.3145 22.2856 17.0304 23.7229C16.4467 24.3763 15.7575 24.8753 14.8592 24.9861C14.1445 25.0741 13.4877 24.8411 12.8204 24.6296C12.1499 24.4169 11.472 24.1927 10.7803 24.0914C9.96442 23.9717 9.18035 24.2313 8.40564 24.5023C7.80136 24.7145 7.17897 24.8968 6.55034 25.0083C5.90548 25.1229 5.32368 24.8626 4.8018 24.4802C3.78737 23.7362 3.05574 22.7313 2.38841 21.6872C0.740368 19.1083 -0.162934 16.2919 0.0243434 13.1912C0.171668 10.7541 1.14426 8.7495 3.28859 7.47808C4.77433 6.59733 6.34559 6.47006 7.97178 7.07285C8.57606 7.29699 9.18659 7.51037 9.80585 7.68576C10.0325 7.74972 10.3096 7.74402 10.5362 7.6769C11.4427 7.40653 12.321 7.01523 13.2411 6.82211C15.6133 6.3238 17.6671 6.92025 19.2596 8.85714C19.299 8.90527 19.3302 8.95972 19.3789 9.03127L19.3782 9.03064Z" fill="white"/>
<path id="Vector_2" d="M14.9848 0.997506C15.0541 1.67691 15.0023 2.35441 14.7519 3.00025C14.1277 4.61232 13.0783 5.82422 11.4527 6.44601C11.1206 6.57327 10.7442 6.58404 10.3878 6.64419C10.1112 6.69105 10.0013 6.57897 10.0045 6.28518C10.0144 5.43419 10.2186 4.63828 10.6231 3.8981C11.5345 2.22967 12.9247 1.25584 14.7844 0.972179C14.825 0.965847 14.8668 0.963948 14.908 0.965214C14.9267 0.965847 14.9448 0.979777 14.9848 0.996873V0.997506Z" fill="white"/>
</g>
</g>
</svg>
