<svg width="20" height="20" viewBox="0 0 20 20" fill="none" xmlns="http://www.w3.org/2000/svg">
<g id="arrow-loop-right-2">
<path id="Vector" d="M10.0007 17.5007V12.5007M10.0007 7.50065V6.66732C10.0007 6.00805 9.80516 5.36358 9.43888 4.81542C9.07261 4.26725 8.55202 3.84001 7.94293 3.58772C7.33384 3.33543 6.66362 3.26942 6.01702 3.39803C5.37041 3.52665 4.77647 3.84412 4.3103 4.3103C3.84412 4.77647 3.52665 5.37041 3.39803 6.01702C3.26942 6.66362 3.33543 7.33384 3.58772 7.94293C3.84001 8.55202 4.26725 9.07261 4.81542 9.43888C5.36358 9.80516 6.00805 10.0007 6.66732 10.0007H17.5007M17.5007 10.0007L14.1673 13.334M17.5007 10.0007L14.1673 6.66732" stroke="#E5E8EB" stroke-width="1.5" stroke-linecap="round" stroke-linejoin="round"/>
</g>
</svg>
