<svg width="60" height="24" viewBox="0 0 60 24" fill="none" xmlns="http://www.w3.org/2000/svg">
<path d="M14.896 13.3827V11.2643H10.7859V12.3858H7.22383V4.88425H0V1.64437H10.7859V3.04001H14.896V-0.000488281H18.5827V13.3827H14.896ZM6.72564 18.8905C6.72564 18.1927 6.8751 17.5447 7.17402 16.8967C7.44802 16.2986 7.84658 15.7503 8.36969 15.2768C8.86788 14.8282 9.44081 14.4793 10.1383 14.1802C10.8108 13.931 11.5332 13.7814 12.3303 13.7814C13.0776 13.7814 13.8 13.931 14.4975 14.1802C15.1701 14.4793 15.7679 14.8282 16.3159 15.2768C16.8141 15.7503 17.2127 16.2986 17.5116 16.8967C17.7856 17.5447 17.935 18.1927 17.935 18.8905C17.935 19.5883 17.7856 20.2861 17.5116 20.9092C17.2127 21.5073 16.8141 22.0556 16.3159 22.5042C15.7679 22.9528 15.1701 23.3266 14.4975 23.6008C13.8 23.85 13.0776 23.9995 12.3303 23.9995C11.5332 23.9995 10.8108 23.85 10.1383 23.6008C9.44081 23.3266 8.86788 22.9528 8.36969 22.5042C7.84658 22.0556 7.44802 21.5073 7.17402 20.9092C6.8751 20.2861 6.72564 19.6132 6.72564 18.8905ZM10.0885 18.8905C10.0885 19.4637 10.2877 19.9372 10.7361 20.336C11.1596 20.7347 11.6827 20.9341 12.3303 20.9341C12.9282 20.9341 13.4762 20.7347 13.9246 20.336C14.348 19.9372 14.5722 19.4637 14.5722 18.8905C14.5722 18.3173 14.348 17.8687 13.9246 17.4699C13.4762 17.0712 12.9282 16.8718 12.3303 16.8718C11.6827 16.8718 11.1596 17.0712 10.7361 17.4699C10.2877 17.8687 10.0885 18.3422 10.0885 18.8905ZM10.7859 8.22381H14.896V6.10543H10.7859V8.22381Z" fill="white"/>
<path d="M30.9626 18.2672H27.3009V7.37626H20.4258V4.06162H30.9626V18.2672ZM38.2363 18.8404H34.5994V0.000976562H38.2363V18.8404Z" fill="white"/>
<path d="M53.5807 11.2157L50.6662 13.2843L46.8052 6.38084L42.9442 13.2843L40.0547 11.2157L46.8052 0.399534L53.5807 11.2157ZM59.4594 23.0787H46.6807V15.1285H50.3424V19.8886H59.4594V23.0787ZM52.0114 4.78749H56.3706V0.00244141H60.0074V14.9059H56.3706V8.02736H52.0114V4.78749Z" fill="white"/>
</svg>
