<svg width="52" height="52" viewBox="0 0 52 52" fill="none" xmlns="http://www.w3.org/2000/svg">
<g clip-path="url(#clip0_914_23270)">
<rect width="52" height="52" rx="26" fill="#1778FB"/>
<path d="M26 34H19C18.4696 34 17.9609 33.7893 17.5858 33.4142C17.2107 33.0391 17 32.5304 17 32V23C17 22.4696 17.2107 21.9609 17.5858 21.5858C17.9609 21.2107 18.4696 21 19 21H20C20.5304 21 21.0391 20.7893 21.4142 20.4142C21.7893 20.0391 22 19.5304 22 19C22 18.7348 22.1054 18.4804 22.2929 18.2929C22.4804 18.1054 22.7348 18 23 18H29C29.2652 18 29.5196 18.1054 29.7071 18.2929C29.8946 18.4804 30 18.7348 30 19C30 19.5304 30.2107 20.0391 30.5858 20.4142C30.9609 20.7893 31.4696 21 32 21H33C33.5304 21 34.0391 21.2107 34.4142 21.5858C34.7893 21.9609 35 22.4696 35 23V26.5M30 33H36M33 30V36M23 27C23 27.7956 23.3161 28.5587 23.8787 29.1213C24.4413 29.6839 25.2044 30 26 30C26.7956 30 27.5587 29.6839 28.1213 29.1213C28.6839 28.5587 29 27.7956 29 27C29 26.2044 28.6839 25.4413 28.1213 24.8787C27.5587 24.3161 26.7956 24 26 24C25.2044 24 24.4413 24.3161 23.8787 24.8787C23.3161 25.4413 23 26.2044 23 27Z" stroke="white" stroke-width="2" stroke-linecap="round" stroke-linejoin="round"/>
</g>
<defs>
<clipPath id="clip0_914_23270">
<rect width="52" height="52" rx="26" fill="white"/>
</clipPath>
</defs>
</svg>
