<svg width="20" height="20" viewBox="0 0 20 20" fill="none" xmlns="http://www.w3.org/2000/svg">
<g id="circle-x-filled">
<path id="Vector" d="M14.166 2.78259C15.4229 3.50831 16.4685 4.5497 17.1992 5.80368C17.9299 7.05766 18.3205 8.48074 18.3322 9.93204C18.3439 11.3833 17.9764 12.8126 17.266 14.0782C16.5557 15.3438 15.5271 16.4019 14.2821 17.1479C13.037 17.8938 11.6188 18.3016 10.1678 18.331C8.71671 18.3603 7.28314 18.0102 6.00898 17.3153C4.73482 16.6204 3.66424 15.6047 2.90324 14.3689C2.14223 13.133 1.71719 11.7199 1.67018 10.2693L1.66602 9.99926L1.67018 9.72926C1.71685 8.29008 2.13564 6.88756 2.88572 5.65842C3.63579 4.42928 4.69156 3.41547 5.95009 2.71583C7.20862 2.01619 8.62697 1.65459 10.0669 1.66629C11.5067 1.67799 12.919 2.06259 14.166 2.78259ZM8.75852 7.61593C8.58392 7.51199 8.37736 7.47543 8.17769 7.51312C7.97802 7.55081 7.79901 7.66015 7.67431 7.82058C7.54961 7.98101 7.48782 8.18147 7.50057 8.38426C7.51331 8.58706 7.59971 8.7782 7.74352 8.92176L8.82018 9.99926L7.74352 11.0768L7.67435 11.1551C7.54484 11.3226 7.48394 11.5331 7.50402 11.7439C7.52409 11.9546 7.62365 12.1499 7.78245 12.2899C7.94126 12.4299 8.1474 12.5042 8.35903 12.4978C8.57065 12.4913 8.77188 12.4045 8.92185 12.2551L9.99935 11.1784L11.0768 12.2551L11.1552 12.3243C11.3227 12.4538 11.5332 12.5147 11.744 12.4946C11.9547 12.4745 12.1499 12.375 12.29 12.2162C12.43 12.0574 12.5043 11.8512 12.4979 11.6396C12.4914 11.428 12.4046 11.2267 12.2552 11.0768L11.1785 9.99926L12.2552 8.92176L12.3243 8.84343C12.4539 8.67593 12.5148 8.46542 12.4947 8.25465C12.4746 8.04389 12.3751 7.84866 12.2162 7.70863C12.0574 7.56861 11.8513 7.49427 11.6397 7.50074C11.428 7.5072 11.2268 7.59397 11.0768 7.74343L9.99935 8.82009L8.92185 7.74343L8.84352 7.67426L8.75852 7.61593Z" fill="#B0B8C1"/>
</g>
</svg>
