<svg width="40" height="40" viewBox="0 0 40 40" fill="none" xmlns="http://www.w3.org/2000/svg">
<g id="Frame">
<g id="Camera">
<path id="Vector" d="M31.25 35H8.75C7.09301 34.998 5.50445 34.3389 4.33277 33.1672C3.1611 31.9956 2.50198 30.407 2.5 28.75V16.25C2.50198 14.593 3.1611 13.0045 4.33277 11.8328C5.50445 10.6611 7.09301 10.002 8.75 10H9.705C9.93726 10.0008 10.1651 9.93639 10.3626 9.81421C10.5601 9.69203 10.7195 9.51692 10.8225 9.30877L11.9475 7.07252C12.2565 6.44916 12.7338 5.92469 13.3254 5.55844C13.917 5.19219 14.5992 4.99876 15.295 5.00002H24.705C25.4018 4.99759 26.0854 5.19047 26.6782 5.55679C27.271 5.92311 27.7492 6.4482 28.0588 7.07252L29.1775 9.30877C29.2805 9.51692 29.4399 9.69203 29.6374 9.81421C29.8349 9.93639 30.0627 10.0008 30.295 10H31.25C32.907 10.002 34.4956 10.6611 35.6672 11.8328C36.8389 13.0045 37.498 14.593 37.5 16.25V28.75C37.498 30.407 36.8389 31.9956 35.6672 33.1672C34.4956 34.3389 32.907 34.998 31.25 35Z" fill="#2D4A60"/>
<path id="Vector_2" d="M20 30C24.1421 30 27.5 26.6421 27.5 22.5C27.5 18.3579 24.1421 15 20 15C15.8579 15 12.5 18.3579 12.5 22.5C12.5 26.6421 15.8579 30 20 30Z" fill="#009AE0"/>
<path id="Vector_3" d="M20 26.25C22.0711 26.25 23.75 24.5711 23.75 22.5C23.75 20.4289 22.0711 18.75 20 18.75C17.9289 18.75 16.25 20.4289 16.25 22.5C16.25 24.5711 17.9289 26.25 20 26.25Z" fill="#0081BD"/>
<g id="Group">
<path id="Vector_4" d="M21.875 22.5C22.9105 22.5 23.75 21.6605 23.75 20.625C23.75 19.5895 22.9105 18.75 21.875 18.75C20.8395 18.75 20 19.5895 20 20.625C20 21.6605 20.8395 22.5 21.875 22.5Z" fill="#EAEFF0"/>
<path id="Vector_5" d="M20 31.25C18.2694 31.25 16.5777 30.7368 15.1388 29.7754C13.6998 28.8139 12.5783 27.4473 11.9161 25.8485C11.2538 24.2496 11.0805 22.4903 11.4181 20.793C11.7558 19.0956 12.5891 17.5365 13.8128 16.3128C15.0365 15.0891 16.5956 14.2558 18.293 13.9181C19.9903 13.5805 21.7496 13.7538 23.3485 14.4161C24.9473 15.0783 26.3139 16.1998 27.2754 17.6388C28.2368 19.0777 28.75 20.7694 28.75 22.5C28.7474 24.8198 27.8246 27.0439 26.1843 28.6843C24.5439 30.3246 22.3198 31.2474 20 31.25ZM20 16.25C18.7639 16.25 17.5555 16.6166 16.5277 17.3033C15.4999 17.9901 14.6988 18.9662 14.2258 20.1082C13.7527 21.2503 13.6289 22.5069 13.8701 23.7193C14.1113 24.9317 14.7065 26.0453 15.5806 26.9194C16.4547 27.7935 17.5683 28.3888 18.7807 28.6299C19.9931 28.8711 21.2497 28.7473 22.3918 28.2743C23.5338 27.8012 24.5099 27.0001 25.1967 25.9723C25.8834 24.9445 26.25 23.7361 26.25 22.5C26.248 20.843 25.5889 19.2545 24.4172 18.0828C23.2456 16.9111 21.657 16.252 20 16.25Z" fill="#EAEFF0"/>
</g>
</g>
</g>
</svg>
