<svg width="190" height="142" viewBox="0 0 190 142" fill="none" xmlns="http://www.w3.org/2000/svg">
<g clip-path="url(#clip0_1385_19110)">
<path d="M85.6245 15.5156H51.7832V28.3406H85.6245V15.5156Z" fill="#B0B8C1"/>
<path d="M3.1596 25.8438H188.154V138.772C188.154 139.414 187.635 139.935 186.996 139.935H3.1596C2.5209 139.935 2.00195 139.414 2.00195 138.772V27.0069C2.00195 26.3652 2.5209 25.8438 3.1596 25.8438Z" fill="#E5E8EB"/>
<path d="M96.5712 2H186.658C187.487 2 188.155 2.67183 188.155 3.5041V29.0337H95.0742V3.5041C95.0742 2.67183 95.7429 2 96.5712 2Z" fill="#E5E8EB"/>
<path d="M136.39 18.8789H108.018V27.2919H136.39V18.8789Z" fill="#B0B8C1"/>
<path d="M180.33 9.00781H146.958C146.484 9.00781 146.1 9.3939 146.1 9.87016V36.3123C146.1 36.7886 146.484 37.1746 146.958 37.1746H180.33C180.804 37.1746 181.188 36.7886 181.188 36.3123V9.87016C181.188 9.3939 180.804 9.00781 180.33 9.00781Z" fill="#333D4B"/>
<path d="M168.745 21.9191C168.745 24.9574 166.29 27.4241 163.266 27.4241C160.242 27.4241 157.787 24.9574 157.787 21.9191C157.787 18.8808 160.242 16.4141 163.266 16.4141C166.29 16.4141 168.745 18.8808 168.745 21.9191Z" fill="#6B7684"/>
<path d="M171.348 18.8867C171.348 20.3306 170.18 21.5038 168.743 21.5038C167.306 21.5038 166.139 20.3306 166.139 18.8867C166.139 17.4427 167.306 16.2695 168.743 16.2695C170.18 16.2695 171.348 17.4427 171.348 18.8867Z" fill="#D1D6DB"/>
<path d="M28.3774 21.5039H16.4316V25.8458H28.3774V21.5039Z" fill="#80C84B"/>
<path d="M36.8113 14.918H8.00977V23.9225H36.8113V14.918Z" fill="#80C84B"/>
<path d="M188.152 47.9023H2V122.917H188.152V47.9023Z" fill="#333D4B"/>
<path d="M65.7144 47.9023H58.998V64.4074H65.7144V47.9023Z" fill="#1778FB"/>
<path d="M71.8777 72.1862C72.9423 66.905 69.5444 61.7566 64.2883 60.6869C59.0322 59.6173 53.9082 63.0314 52.8436 68.3126C51.779 73.5937 55.1769 78.7421 60.4331 79.8118C65.6892 80.8815 70.8131 77.4674 71.8777 72.1862Z" fill="#1778FB"/>
<path d="M143.316 127.581C166.49 117.936 177.495 91.241 167.896 67.9563C158.297 44.6715 131.729 33.6142 108.554 43.2591C85.3801 52.904 74.3753 79.5987 83.9744 102.883C93.5735 126.168 120.141 137.225 143.316 127.581Z" fill="#F2F4F6"/>
<path d="M125.931 125.437C147.928 125.437 165.76 107.52 165.76 85.4176C165.76 63.3156 147.928 45.3984 125.931 45.3984C103.934 45.3984 86.1016 63.3156 86.1016 85.4176C86.1016 107.52 103.934 125.437 125.931 125.437Z" fill="#E5E8EB"/>
<path d="M125.93 118.917C144.345 118.917 159.273 103.918 159.273 85.4154C159.273 66.9131 144.345 51.9141 125.93 51.9141C107.516 51.9141 92.5879 66.9131 92.5879 85.4154C92.5879 103.918 107.516 118.917 125.93 118.917Z" fill="#B0B8C1"/>
<path d="M125.93 115.175C142.289 115.175 155.55 101.85 155.55 85.4135C155.55 68.9769 142.289 55.6523 125.93 55.6523C109.572 55.6523 96.3105 68.9769 96.3105 85.4135C96.3105 101.85 109.572 115.175 125.93 115.175Z" fill="#333D4B"/>
<path d="M125.93 111.247C140.129 111.247 151.638 99.6822 151.638 85.4164C151.638 71.1506 140.129 59.5859 125.93 59.5859C111.732 59.5859 100.223 71.1506 100.223 85.4164C100.223 99.6822 111.732 111.247 125.93 111.247Z" fill="#6B7684"/>
<path d="M141.62 80.0924C141.62 84.4443 138.107 87.9739 133.776 87.9739C129.445 87.9739 125.932 84.4443 125.932 80.0924C125.932 75.7406 129.445 72.2109 133.776 72.2109C138.107 72.2109 141.62 75.7406 141.62 80.0924Z" fill="#B0B8C1"/>
<path d="M146.919 75.5784C146.919 78.5164 144.544 80.903 141.62 80.903C138.695 80.903 136.32 78.5164 136.32 75.5784C136.32 72.6404 138.695 70.2539 141.62 70.2539C144.544 70.2539 146.919 72.6404 146.919 75.5784Z" fill="white"/>
</g>
<mask id="path-20-outside-1_1385_19110" maskUnits="userSpaceOnUse" x="0" y="0" width="190" height="142" fill="black">
<rect fill="white" width="190" height="142"/>
<path fill-rule="evenodd" clip-rule="evenodd" d="M186.658 2H96.5705C95.7422 2 95.0736 2.67183 95.0736 3.5041V25.845H85.6228V15.5148H51.7815V25.845H28.3769V23.9249H36.8104V14.9204H8.00889V23.9249H16.4311V25.845H3.15876C2.52006 25.845 2.00111 26.3665 2.00111 27.0082V47.9036H2V122.918H2.00111V138.773C2.00111 139.415 2.52006 139.936 3.15876 139.936H186.996C187.634 139.936 188.153 139.415 188.153 138.773V29.0337H188.155V3.5041C188.155 2.67183 187.486 2 186.658 2Z"/>
</mask>
<path d="M95.0736 25.845V26.9849H96.2134V25.845H95.0736ZM85.6228 25.845H84.4829V26.9849H85.6228V25.845ZM85.6228 15.5148H86.7627V14.3749H85.6228V15.5148ZM51.7815 15.5148V14.3749H50.6416V15.5148H51.7815ZM51.7815 25.845V26.9849H52.9214V25.845H51.7815ZM28.3769 25.845H27.237V26.9849H28.3769V25.845ZM28.3769 23.9249V22.7851H27.237V23.9249H28.3769ZM36.8104 23.9249V25.0648H37.9503V23.9249H36.8104ZM36.8104 14.9204H37.9503V13.7805H36.8104V14.9204ZM8.00889 14.9204V13.7805H6.86901V14.9204H8.00889ZM8.00889 23.9249H6.86901V25.0648H8.00889V23.9249ZM16.4311 23.9249H17.571V22.7851H16.4311V23.9249ZM16.4311 25.845V26.9849H17.571V25.845H16.4311ZM2.00111 47.9036V49.0435H3.141V47.9036H2.00111ZM2 47.9036V46.7637H0.860117V47.9036H2ZM2 122.918H0.860117V124.058H2V122.918ZM2.00111 122.918H3.141V121.778H2.00111V122.918ZM188.153 29.0337V27.8939H187.013V29.0337H188.153ZM188.155 29.0337V30.1736H189.295V29.0337H188.155ZM96.5705 3.13988H186.658V0.860117H96.5705V3.13988ZM96.2134 3.5041C96.2134 3.29625 96.3769 3.13988 96.5705 3.13988V0.860117C95.1076 0.860117 93.9337 2.04741 93.9337 3.5041H96.2134ZM96.2134 25.845V3.5041H93.9337V25.845H96.2134ZM85.6228 26.9849H95.0736V24.7051H85.6228V26.9849ZM84.4829 15.5148V25.845H86.7627V15.5148H84.4829ZM51.7815 16.6547H85.6228V14.3749H51.7815V16.6547ZM52.9214 25.845V15.5148H50.6416V25.845H52.9214ZM28.3769 26.9849H51.7815V24.7051H28.3769V26.9849ZM27.237 23.9249V25.845H29.5168V23.9249H27.237ZM36.8104 22.7851H28.3769V25.0648H36.8104V22.7851ZM35.6706 14.9204V23.9249H37.9503V14.9204H35.6706ZM8.00889 16.0603H36.8104V13.7805H8.00889V16.0603ZM9.14877 23.9249V14.9204H6.86901V23.9249H9.14877ZM16.4311 22.7851H8.00889V25.0648H16.4311V22.7851ZM17.571 25.845V23.9249H15.2913V25.845H17.571ZM3.15876 26.9849H16.4311V24.7051H3.15876V26.9849ZM3.141 27.0082C3.141 27.0026 3.14191 27 3.1426 26.9984C3.1436 26.996 3.14547 26.993 3.14836 26.9901C3.15124 26.9872 3.15369 26.9859 3.15468 26.9854C3.15487 26.9853 3.1555 26.9849 3.15876 26.9849V24.7051C1.88541 24.7051 0.86123 25.742 0.86123 27.0082H3.141ZM3.141 47.9036V27.0082H0.86123V47.9036H3.141ZM2 49.0435H2.00111V46.7637H2V49.0435ZM3.13988 122.918V47.9036H0.860117V122.918H3.13988ZM2.00111 121.778H2V124.058H2.00111V121.778ZM3.141 138.773V122.918H0.86123V138.773H3.141ZM3.15876 138.796C3.15551 138.796 3.15488 138.796 3.15468 138.796C3.15369 138.795 3.15125 138.794 3.14836 138.791C3.14547 138.788 3.14361 138.785 3.1426 138.783C3.14191 138.781 3.141 138.779 3.141 138.773H0.86123C0.86123 140.039 1.88541 141.076 3.15876 141.076V138.796ZM186.996 138.796H3.15876V141.076H186.996V138.796ZM187.013 138.773C187.013 138.779 187.012 138.781 187.012 138.783C187.011 138.785 187.009 138.788 187.006 138.791C187.003 138.794 187.001 138.795 187 138.796C187 138.796 186.999 138.796 186.996 138.796V141.076C188.269 141.076 189.293 140.039 189.293 138.773H187.013ZM187.013 29.0337V138.773H189.293V29.0337H187.013ZM188.155 27.8939H188.153V30.1736H188.155V27.8939ZM187.015 3.5041V29.0337H189.295V3.5041H187.015ZM186.658 3.13988C186.851 3.13988 187.015 3.29625 187.015 3.5041H189.295C189.295 2.04741 188.121 0.860117 186.658 0.860117V3.13988Z" fill="#D1D6DB" mask="url(#path-20-outside-1_1385_19110)"/>
<defs>
<clipPath id="clip0_1385_19110">
<rect width="186.152" height="137.926" fill="white" transform="translate(2.00195 2)"/>
</clipPath>
</defs>
</svg>
