<svg width="20" height="20" viewBox="0 0 20 20" fill="none" xmlns="http://www.w3.org/2000/svg">
<g id="circle-x-filled">
<path id="Vector" d="M14.1665 2.78259C15.4234 3.50831 16.469 4.5497 17.1997 5.80368C17.9304 7.05766 18.321 8.48074 18.3327 9.93204C18.3444 11.3833 17.9769 12.8126 17.2665 14.0782C16.5561 15.3438 15.5275 16.4019 14.2825 17.1479C13.0375 17.8938 11.6193 18.3016 10.1683 18.331C8.7172 18.3603 7.28363 18.0102 6.00947 17.3153C4.7353 16.6204 3.66473 15.6047 2.90373 14.3689C2.14272 13.133 1.71768 11.7199 1.67067 10.2693L1.6665 9.99926L1.67067 9.72926C1.71734 8.29008 2.13613 6.88756 2.8862 5.65842C3.63628 4.42928 4.69205 3.41547 5.95058 2.71583C7.20911 2.01619 8.62746 1.65459 10.0673 1.66629C11.5072 1.67799 12.9195 2.06259 14.1665 2.78259ZM8.759 7.61593C8.5844 7.51199 8.37785 7.47543 8.17818 7.51312C7.97851 7.55081 7.79949 7.66015 7.67479 7.82058C7.5501 7.98101 7.48831 8.18147 7.50105 8.38426C7.5138 8.58706 7.6002 8.7782 7.744 8.92176L8.82067 9.99926L7.744 11.0768L7.67484 11.1551C7.54533 11.3226 7.48443 11.5331 7.50451 11.7439C7.52458 11.9546 7.62413 12.1499 7.78294 12.2899C7.94174 12.4299 8.14789 12.5042 8.35952 12.4978C8.57114 12.4913 8.77237 12.4045 8.92234 12.2551L9.99984 11.1784L11.0773 12.2551L11.1557 12.3243C11.3232 12.4538 11.5337 12.5147 11.7444 12.4946C11.9552 12.4745 12.1504 12.375 12.2905 12.2162C12.4305 12.0574 12.5048 11.8512 12.4984 11.6396C12.4919 11.428 12.4051 11.2267 12.2557 11.0768L11.179 9.99926L12.2557 8.92176L12.3248 8.84343C12.4543 8.67593 12.5152 8.46542 12.4952 8.25465C12.4751 8.04389 12.3755 7.84866 12.2167 7.70863C12.0579 7.56861 11.8518 7.49427 11.6402 7.50074C11.4285 7.5072 11.2273 7.59397 11.0773 7.74343L9.99984 8.82009L8.92234 7.74343L8.844 7.67426L8.759 7.61593Z" fill="#B0B8C1"/>
</g>
</svg>
