<svg width="101" height="100" viewBox="0 0 101 100" fill="none" xmlns="http://www.w3.org/2000/svg">
<rect x="0.500488" width="100" height="100" rx="50" fill="#F2F4F6"/>
<path d="M42.2807 24.9999C42.2807 20.7367 45.7367 17.2807 49.9999 17.2807C54.2631 17.2807 57.7191 20.7367 57.7191 24.9999V29.0348C57.7191 30.1006 56.8552 30.9646 55.7894 30.9646H43.0409C42.621 30.9646 42.2807 30.6243 42.2807 30.2044V24.9999Z" stroke="#D1D6DB" stroke-width="4.56134"/>
<path d="M20 56.5806C20 50.6702 24.7913 45.8789 30.7017 45.8789C36.612 45.8789 41.4033 50.6702 41.4033 56.5806V69.3603C41.4033 73.2508 38.2494 76.4047 34.3589 76.4047H25.0876C22.2778 76.4047 20 74.1269 20 71.3171V56.5806Z" fill="#D1D6DB"/>
<path d="M58.5967 56.5806C58.5967 50.6702 63.388 45.8789 69.2983 45.8789C75.2087 45.8789 80 50.6702 80 56.5806V69.3603C80 73.2508 76.8461 76.4047 72.9556 76.4047H63.6843C60.8745 76.4047 58.5967 74.1269 58.5967 71.3171V56.5806Z" fill="#D1D6DB"/>
<path d="M24.9121 49.2105C24.9121 35.3551 36.1442 24.123 49.9996 24.123C63.855 24.123 75.0871 35.3551 75.0871 49.2105V73.5958C75.0871 79.4092 70.3744 84.122 64.5609 84.122H35.4383C29.6248 84.122 24.9121 79.4093 24.9121 73.5958V49.2105Z" fill="#B0B8C1"/>
<path d="M31.5786 68.8604C31.5786 58.6868 39.8259 50.4395 49.9995 50.4395C60.1731 50.4395 68.4204 58.6868 68.4204 68.8603V76.3499C68.4204 80.6429 64.9402 84.1231 60.6472 84.1231H37.1925C34.0921 84.1231 31.5786 81.6096 31.5786 78.5091V68.8604Z" fill="#D1D6DB"/>
</svg>
