<svg width="64" height="65" viewBox="0 0 64 65" fill="none" xmlns="http://www.w3.org/2000/svg">
<g clip-path="url(#clip0_1581_2035)">
<path d="M47.0029 39.4336H53.1904C53.7161 39.4336 54.1423 39.8598 54.1423 40.3855V50.1427C54.1423 52.7714 52.0114 54.9024 49.3827 54.9024H47.0029V39.4336Z" fill="#D1D6DB"/>
<path d="M4.1665 3.73686C4.1665 2.68539 5.01888 1.83301 6.07035 1.83301H45.0991C46.1506 1.83301 47.0029 2.68539 47.0029 3.73685V54.9028H6.07035C5.01889 54.9028 4.1665 54.0504 4.1665 52.9989V3.73686Z" fill="#E5E8EB"/>
<path fill-rule="evenodd" clip-rule="evenodd" d="M47.0055 52.0078H47.0029V52.1285V54.9025H49.7151C48.215 54.8892 47.0029 53.6523 47.0029 52.1285C47.0029 52.0881 47.0038 52.0478 47.0055 52.0078ZM49.7643 54.9025C49.7959 54.9022 49.8274 54.9014 49.8587 54.9001V54.9025H49.7643Z" fill="#E5E8EB"/>
<rect x="8.5" y="20.4355" width="18.2947" height="2.67729" rx="1.33864" transform="rotate(-45 8.5 20.4355)" fill="white"/>
<rect width="18.2947" height="2.67729" rx="1.33864" transform="matrix(-0.707107 -0.707107 -0.707107 0.707107 23.5 20.4355)" fill="white"/>
<path d="M43.5029 45.5391L45.2878 42.4476L58.478 50.063L56.6931 53.1545L43.5029 45.5391Z" fill="#6B7684"/>
<path d="M50.7716 50.5601C50.4301 50.3629 50.3131 49.9263 50.5103 49.5848L52.2951 46.4934C52.4923 46.1519 52.9289 46.0349 53.2704 46.232L61.4112 50.9322C62.6064 51.6222 63.0159 53.1504 62.3259 54.3456C61.6358 55.5408 60.1076 55.9502 58.9124 55.2602L50.7716 50.5601Z" fill="#1778FB"/>
<path d="M42.2955 28.3538C48.2713 31.8039 50.3187 39.4452 46.8686 45.4209C43.4185 51.3967 35.7773 53.4442 29.8015 49.9941C23.8258 46.5439 21.7783 38.9027 25.2284 32.9269C28.6785 26.9512 36.3197 24.9037 42.2955 28.3538Z" fill="white" fill-opacity="0.7"/>
<path fill-rule="evenodd" clip-rule="evenodd" d="M43.571 43.5171C45.9697 39.3625 44.5462 34.05 40.3917 31.6514C36.2371 29.2527 30.9246 30.6762 28.526 34.8308C26.1273 38.9854 27.5508 44.2979 31.7054 46.6965C35.86 49.0952 41.1724 47.6717 43.571 43.5171ZM46.8686 45.4209C50.3187 39.4452 48.2713 31.8039 42.2955 28.3538C36.3197 24.9037 28.6785 26.9512 25.2284 32.9269C21.7783 38.9027 23.8258 46.5439 29.8015 49.9941C35.7773 53.4442 43.4185 51.3967 46.8686 45.4209Z" fill="#8B95A1"/>
</g>
<defs>
<clipPath id="clip0_1581_2035">
<rect width="60" height="60" fill="white" transform="translate(3.5 4.5)"/>
</clipPath>
</defs>
</svg>
