<svg width="25" height="24" viewBox="0 0 25 24" fill="none" xmlns="http://www.w3.org/2000/svg">
<g id="Error">
<path id="Subtract" d="M21.5 12C21.5 16.9706 17.4706 21 12.5 21C7.52944 21 3.5 16.9706 3.5 12C3.5 7.02944 7.52944 3 12.5 3C17.4706 3 21.5 7.02944 21.5 12Z" fill="#FF5761"/>
<g id="Vector">
<path d="M12.4655 16C13.0052 16 13.4058 15.5845 13.4058 15.0413V15.0188C13.4058 14.4756 13.0052 14.0601 12.4655 14.0601C11.9258 14.0601 11.5252 14.4781 11.5252 15.0188V15.0413C11.5252 15.5845 11.9258 16 12.4655 16Z" fill="white"/>
<path d="M12.9621 12.8185L13.4274 8.57822C13.4586 8.25031 13.2859 8.0025 12.9933 8H11.9354C11.6428 8 11.4725 8.24781 11.5037 8.57572L11.969 12.8185C12.0002 13.1214 12.1945 13.3142 12.4655 13.3142C12.7366 13.3142 12.9309 13.1239 12.9621 12.8185Z" fill="white"/>
</g>
</g>
</svg>
