<svg width="24" height="24" viewBox="0 0 24 24" fill="none" xmlns="http://www.w3.org/2000/svg">
<g id="heart">
<path id="Vector" d="M1.99902 8.49073C1.99902 5.45273 4.46142 2.99072 7.49902 2.99072C9.31893 2.99072 10.9974 3.90674 12.0302 5.30274C13.0894 3.93074 14.7738 2.99072 16.499 2.99072C19.5366 2.99072 21.999 5.45273 21.999 8.49073C21.999 11.6747 20.1855 14.6787 17.1865 17.4287C16.1629 18.3667 15.0608 19.1897 13.9678 19.9287C13.5847 20.1867 13.2264 20.4208 12.9052 20.6158C12.7094 20.7348 12.5803 20.8208 12.499 20.8658C12.197 21.0338 11.801 21.0338 11.499 20.8658C11.4177 20.8208 11.2886 20.7348 11.0928 20.6158C10.7716 20.4208 10.4133 20.1867 10.0302 19.9287C8.93723 19.1897 7.83512 18.3667 6.81152 17.4287C3.81252 14.6787 1.99902 11.6747 1.99902 8.49073Z" fill="#FF5761"/>
</g>
</svg>
