<svg width="187" height="167" viewBox="0 0 187 167" fill="none" xmlns="http://www.w3.org/2000/svg">
<path d="M7.92187 51.1099L103.716 146.904C109.467 152.655 117.267 155.885 125.4 155.885H198.818" stroke="#80C84B" stroke-width="8.17761" stroke-linecap="round" stroke-linejoin="round"/>
<circle cx="7.66651" cy="50.0879" r="6.13321" fill="white" stroke="#80C84B" stroke-width="3.0666"/>
<path d="M7.83691 159.053L112.849 78.7268V28.2478C112.849 16.9573 122.001 7.80437 133.292 7.80378L164.83 7.80213" stroke="#FBB12C" stroke-width="8.17761" stroke-linecap="round" stroke-linejoin="round"/>
<circle cx="7.66651" cy="158.88" r="6.13321" fill="white" stroke="#FBB12C" stroke-width="3.0666"/>
<circle cx="26.5772" cy="144.641" r="1.5333" fill="white"/>
<circle cx="23.5108" cy="66.9542" r="1.5333" fill="white"/>
<circle cx="42.4215" cy="85.8648" r="1.5333" fill="white"/>
<circle cx="87.9093" cy="130.841" r="1.5333" fill="white"/>
<circle cx="113.464" cy="153.33" r="1.5333" fill="white"/>
<circle cx="155.374" cy="155.885" r="1.5333" fill="white"/>
<circle cx="119.598" cy="13.2887" r="1.5333" fill="white"/>
<circle cx="140.552" cy="7.6666" r="1.5333" fill="white"/>
<circle cx="45.4879" cy="130.331" r="1.5333" fill="white"/>
<circle cx="166.619" cy="7.66651" r="6.13321" fill="white" stroke="#FBB12C" stroke-width="3.0666"/>
<path d="M40.8882 118.396C40.8882 112.709 45.4991 108.098 51.1869 108.098H203.674V128.695H51.1869C45.4991 128.695 40.8882 124.084 40.8882 118.396Z" fill="#6B7684" fill-opacity="0.1"/>
<path d="M77.49 38.3325H204.414V121.054H58.5718C54.1683 121.054 50.5986 117.484 50.5986 113.081V93.0396C50.5986 92.0141 50.7964 90.9983 51.1812 90.0478L70.0995 43.3139C71.3183 40.303 74.2418 38.3325 77.49 38.3325Z" fill="#D1D6DB"/>
<path d="M50.5986 99.46C54.6351 99.46 57.9074 102.732 57.9074 106.769V107.312C57.9074 107.746 57.5558 108.098 57.1221 108.098H50.5986V99.46Z" fill="white"/>
<path d="M127.323 38.3325H204.415V121.054H108.404C104.001 121.054 100.431 117.484 100.431 113.081V93.0396C100.431 92.0141 100.629 90.9983 101.014 90.0478L119.932 43.3139C121.151 40.303 124.074 38.3325 127.323 38.3325Z" fill="#B0B8C1"/>
<path d="M69.5489 44.7721L69.5595 44.7455L69.5655 44.7174C70.3154 41.1884 73.4317 38.6647 77.0396 38.6647H123.927L112.47 85.6392C111.49 89.6567 107.891 92.4836 103.756 92.4836H50.9308V92.3248C50.9308 91.8004 50.9848 91.2775 51.0919 90.7643L69.5489 44.7721Z" fill="#F2F4F6" stroke="#E5E8EB" stroke-width="0.664431"/>
<path d="M123.805 38.3325C120.041 38.3325 116.789 40.9659 116.006 44.6484L100.605 90.6675C100.49 91.2123 100.431 91.7678 100.431 92.3248V92.8158H103.756C108.044 92.8158 111.777 89.8842 112.793 85.718L129.973 38.3325H123.805Z" fill="#D1D6DB"/>
<path d="M135.162 50.0132C135.446 48.8139 136.516 47.9668 137.749 47.9668H204.414V84.5105H130.367C128.653 84.5105 127.387 82.9104 127.781 81.2414L135.162 50.0132Z" fill="#6B7684"/>
<path d="M100.431 99.46H93.666C89.3293 99.46 85.8137 102.976 85.8137 107.312C85.8137 107.746 86.1652 108.098 86.5989 108.098H100.431V99.46Z" fill="white"/>
<path d="M100.431 99.46H106.743C109.128 99.46 111.062 101.394 111.062 103.779C111.062 106.164 109.128 108.098 106.743 108.098H100.431V99.46Z" fill="#D1D6DB"/>
<path fill-rule="evenodd" clip-rule="evenodd" d="M204.082 121.054H58.5719C54.9774 121.054 51.9384 118.675 50.9432 115.406H204.082V121.054Z" fill="#B0B8C1"/>
<path fill-rule="evenodd" clip-rule="evenodd" d="M108.404 121.054H204.082V115.406H100.775C101.771 118.675 104.81 121.054 108.404 121.054Z" fill="#8B95A1"/>
<path d="M31.0839 113.672C31.0839 112.27 26.9387 111.133 21.8261 111.133C16.7136 111.133 12.5684 112.27 12.5684 113.672C12.5684 115.074 16.7136 116.21 21.8261 116.21C26.9387 116.21 31.0839 115.074 31.0839 113.672Z" fill="#F2F4F6"/>
<path d="M34.0294 93.9413C37.4806 87.9654 36.1418 80.3729 30.8547 75.9357C25.5676 71.4999 17.8598 71.4999 12.5727 75.9357C7.2856 80.3729 5.94681 87.9654 9.39794 93.9413L9.41183 93.9649C9.74375 94.5343 10.1146 95.0815 10.5215 95.5995L19.5069 106.268C20.1444 106.906 20.411 107.546 21.7248 107.546C22.6247 107.496 23.4483 107.022 23.9441 106.268L32.9364 95.537C33.3198 95.0454 33.6683 94.5288 33.9808 93.9899L34.0294 93.9413Z" fill="#1778FB"/>
<path d="M27.3989 86.8306C27.3989 89.972 24.8519 92.519 21.7104 92.519C18.569 92.519 16.022 89.972 16.022 86.8306C16.022 83.6891 18.569 81.1421 21.7104 81.1421C24.8519 81.1421 27.3989 83.6891 27.3989 86.8306Z" fill="#0956BE"/>
</svg>
