<svg width="21" height="20" viewBox="0 0 21 20" fill="none" xmlns="http://www.w3.org/2000/svg">
<g id="heart">
<path id="Vector" d="M6.74909 2.49219C4.21775 2.49219 2.16575 4.54386 2.16575 7.07553C2.16575 9.72887 3.677 12.2322 6.17617 14.5239C7.02917 15.3055 7.94759 15.9914 8.85842 16.6072C9.17767 16.8222 9.47625 17.0172 9.74392 17.1797C9.90709 17.2789 10.0147 17.3506 10.0824 17.3881C10.3341 17.5281 10.6641 17.5281 10.9158 17.3881C10.9835 17.3506 11.0911 17.2789 11.2543 17.1797C11.5219 17.0172 11.8205 16.8222 12.1398 16.6072C13.0506 15.9914 13.969 15.3055 14.822 14.5239C17.3212 12.2322 18.8324 9.72887 18.8324 7.07553C18.8324 4.54386 16.7804 2.49219 14.2491 2.49219C12.8114 2.49219 11.4078 3.27553 10.5251 4.41887C9.66442 3.25553 8.26567 2.49219 6.74909 2.49219ZM6.74909 4.15886C7.76067 4.15886 8.70534 4.6722 9.24909 5.46054C9.30192 5.5372 9.7185 6.1497 9.79592 6.26803C10.1183 6.7622 10.8377 6.77721 11.1762 6.29387C11.2585 6.17637 11.6921 5.56636 11.7491 5.48719C12.3167 4.69385 13.3101 4.15886 14.2491 4.15886C15.8599 4.15886 17.1658 5.46469 17.1658 7.07553C17.1658 9.16137 15.8645 11.2672 13.6762 13.2739C12.8885 13.9955 12.0492 14.6539 11.2023 15.2264C10.9462 15.3997 10.7178 15.5347 10.4991 15.6689C10.2804 15.5347 10.052 15.3997 9.79592 15.2264C8.949 14.6539 8.10967 13.9955 7.322 13.2739C5.13367 11.2672 3.83242 9.16137 3.83242 7.07553C3.83242 5.46469 5.13825 4.15886 6.74909 4.15886Z" fill="#6B7684"/>
</g>
</svg>
