<svg width="25" height="24" viewBox="0 0 25 24" fill="none" xmlns="http://www.w3.org/2000/svg">
<path d="M20.6813 10.875L19.05 9.24488V5.25C19.05 4.63125 18.5438 4.125 17.925 4.125H16.8C16.1813 4.125 15.675 4.63125 15.675 5.25V5.87212L13.425 3.62438C13.1179 3.33413 12.8366 3 12.3 3C11.7634 3 11.4821 3.33413 11.175 3.62438L3.91877 10.875C3.56777 11.2406 3.30002 11.5073 3.30002 12C3.30002 12.6334 3.78602 13.125 4.42502 13.125H5.55002V19.875C5.55002 20.4938 6.05627 21 6.67502 21H8.92502C9.54634 21 10.05 20.4963 10.05 19.875V15.375C10.05 14.7562 10.5563 14.25 11.175 14.25H13.425C14.0438 14.25 14.55 14.7562 14.55 15.375V19.875C14.55 20.4963 14.4912 21 15.1125 21H17.925C18.5438 21 19.05 20.4938 19.05 19.875V13.125H20.175C20.814 13.125 21.3 12.6334 21.3 12C21.3 11.5073 21.0323 11.2406 20.6813 10.875Z" stroke="#8B95A1" stroke-width="2" stroke-linejoin="round"/>
</svg>
