<svg width="48" height="61" viewBox="0 0 48 61" fill="none" xmlns="http://www.w3.org/2000/svg">
<g id="Group">
<path id="Vector" d="M31.5968 37.5845H15.8258C14.5402 37.5845 13.3124 37.0329 12.4599 36.0687C11.6074 35.1046 11.2067 33.8206 11.3619 32.5412L12.8676 20.2251C12.958 19.4764 13.5116 18.8669 14.246 18.7023C14.9803 18.5378 15.7401 18.853 16.1409 19.4904C17.8018 22.1279 20.6512 23.7016 23.76 23.7016C26.8687 23.7016 29.637 22.1696 31.3049 19.6062C31.7126 18.9781 32.4701 18.6745 33.1998 18.8437C33.9295 19.0129 34.4739 19.6201 34.5643 20.3641L36.0538 32.5412C36.2113 33.8182 35.8106 35.1046 34.9581 36.0687C34.1056 37.0329 32.8778 37.5845 31.5922 37.5845H31.5968ZM15.9301 24.5336L14.8992 32.9746C14.8552 33.3385 15.0243 33.5888 15.1263 33.707C15.2305 33.8252 15.4598 34.0222 15.8258 34.0222H31.5968C31.9628 34.0222 32.1921 33.8252 32.2964 33.707C32.4006 33.5888 32.5674 33.3385 32.5234 32.9746L31.4995 24.6055C29.3243 26.309 26.6162 27.2662 23.7623 27.2662C20.9083 27.2662 18.1192 26.2835 15.9301 24.5336Z" fill="#D1D6DB"/>
<g id="Group_2">
<path id="Vector_2" d="M19.4118 32.0412C20.365 32.0412 21.1377 31.2432 21.1377 30.2589C21.1377 29.2745 20.365 28.4766 19.4118 28.4766C18.4587 28.4766 17.686 29.2745 17.686 30.2589C17.686 31.2432 18.4587 32.0412 19.4118 32.0412Z" fill="#D1D6DB"/>
<path id="Vector_3" d="M28.0105 32.0412C28.9636 32.0412 29.7363 31.2432 29.7363 30.2589C29.7363 29.2745 28.9636 28.4766 28.0105 28.4766C27.0573 28.4766 26.2847 29.2745 26.2847 30.2589C26.2847 31.2432 27.0573 32.0412 28.0105 32.0412Z" fill="#D1D6DB"/>
</g>
<path id="Vector_4" d="M23.7603 60.5C22.6785 60.5 21.5943 60.2404 20.6677 59.7189C20.6399 59.7027 20.6098 59.6865 20.582 59.668C20.4106 59.5637 20.2392 59.4594 20.0701 59.3504C20.0585 59.3435 20.0492 59.3365 20.0376 59.3296C9.55995 52.7682 2.38102 41.5646 0.835897 29.3481C0.831264 29.311 0.828947 29.2762 0.826631 29.2391L0.5 24.8425L4.22498 27.0118L4.37787 28.9471C5.80254 40.1067 12.3745 50.3393 21.9603 56.3259C21.9766 56.3351 21.9928 56.3467 22.0067 56.356C22.1503 56.4464 22.2939 56.5368 22.4399 56.6248C23.2205 57.0467 24.3695 57.0351 25.1386 56.597C25.222 56.546 25.3054 56.4951 25.3888 56.4417L25.4537 56.4023C25.4722 56.3908 25.4907 56.3792 25.5093 56.3676C35.197 50.3439 41.8014 40.021 43.1798 28.7501C43.1844 28.7038 43.1937 28.6574 43.2029 28.611C43.8469 25.4474 43.6477 21.7484 42.6446 18.1954C41.5327 14.2669 39.5289 10.8275 36.8487 8.25487C36.8163 8.22474 36.7861 8.19229 36.7583 8.16216C36.5012 7.90026 31.9353 3.37847 25.1965 4.15026C23.6838 4.32408 20.1372 4.72736 17.5219 7.64068L17.5057 7.65922C16.125 9.15413 15.1775 11.2632 14.9042 13.4465C14.8463 13.9077 14.8185 14.3643 14.8231 14.8116C15.5945 14.1974 16.5698 13.8335 17.6192 13.8335H29.8064C32.0743 13.8335 33.9924 15.5324 34.2681 17.7852L34.5715 20.2674L31.0365 20.6985L30.733 18.2163C30.6751 17.7481 30.279 17.3958 29.8064 17.3958H17.6192C17.1489 17.3958 16.7505 17.7481 16.6926 18.2163L16.4053 20.5594C16.315 21.2988 15.7752 21.9037 15.0524 22.0752C14.3297 22.249 13.5745 21.9524 13.1598 21.3359C11.6217 19.0413 10.9846 16.084 11.3692 13.0061C11.7352 10.0627 12.9838 7.30694 14.881 5.25115C18.3975 1.34123 23.0422 0.81048 24.7911 0.61116C32.1925 -0.234793 37.4695 3.98338 38.9104 5.29519C39.0633 5.43425 39.2116 5.57099 39.3459 5.71701C42.4686 8.72536 44.7944 12.7048 46.0731 17.2289C47.2221 21.2918 47.4468 25.561 46.7078 29.2554C45.1813 41.5622 37.9629 52.8262 27.3857 59.4014C27.3741 59.4084 27.3648 59.4153 27.3532 59.4223C27.3486 59.4246 27.344 59.4269 27.3393 59.4292L27.2652 59.4756C27.1818 59.5289 27.0961 59.5799 27.0104 59.6332C26.9988 59.6401 26.9872 59.6471 26.9756 59.654C26.9664 59.6587 26.9571 59.6656 26.9478 59.6703C25.9981 60.2242 24.8792 60.5 23.7603 60.5ZM36.58 7.93271C36.6402 8.02773 36.6981 8.09726 36.7375 8.14362C36.6796 8.07641 36.6263 8.00688 36.58 7.93271ZM36.2997 6.94538C36.295 7.19569 36.3437 7.41355 36.4109 7.59433C36.3344 7.39037 36.295 7.17019 36.2997 6.94538Z" fill="#D1D6DB"/>
<g id="Group_3">
<path id="Vector_5" d="M15.3859 39.9029H11.0864L16.4191 34.1875L18.9371 36.7068L15.3859 39.9029Z" fill="#D1D6DB"/>
<path id="Vector_6" d="M32.0366 39.9029L28.4854 36.7068L31.0034 34.1875L36.3361 39.9029H32.0366Z" fill="#D1D6DB"/>
</g>
</g>
</svg>
