<svg width="107" height="141" viewBox="0 0 107 141" fill="none" xmlns="http://www.w3.org/2000/svg">
<rect x="0.849805" y="0.440625" width="104.869" height="140.119" rx="9.25312" fill="white" stroke="#E5E8EB" stroke-width="0.88125"/>
<g clip-path="url(#clip0_1311_18478)">
<rect x="7.45898" y="11.457" width="91.65" height="98.7" rx="4.40625" fill="#F2F4F6"/>
<path d="M56.3305 72.8231L4.15638 79.2959L6.20458 121.016L112.556 109.908L110.523 38.691L84.7202 61.9855L76.3313 54.7793L56.3305 72.8231Z" fill="#DFE4E8"/>
<path d="M33.8455 91.5064L28.7842 91.877L30.3449 113.194L35.4063 112.824L33.8455 91.5064Z" fill="#85664F"/>
<path d="M36.5267 69.2011L31.6302 63.458C30.339 61.9436 27.9486 62.1186 26.8917 63.8049L22.8839 70.2C21.6024 72.2449 23.1885 74.879 25.5956 74.7027L34.4996 74.0508C36.9067 73.8746 38.0925 71.0376 36.5267 69.2011Z" fill="#176C46"/>
<path d="M42.0034 81.7759L32.0994 69.5029C30.8177 67.9145 28.344 68.0956 27.3071 69.8537L19.2963 83.4384C18.0984 85.4697 19.6755 88.0103 22.0274 87.8381L39.9422 86.5265C42.2941 86.3541 43.4844 83.611 42.0034 81.7759Z" fill="#176C46"/>
<path d="M48.4883 95.9262L31.6634 74.4733C30.8157 73.3924 29.143 73.5149 28.4618 74.7077L14.941 98.3823C14.1731 99.727 15.2176 101.384 16.7619 101.271L47.1075 99.049C48.6518 98.9359 49.4437 97.1447 48.4883 95.9262Z" fill="#176C46"/>
<path d="M9.8305 90.4501L3.0127 90.9492L4.77835 115.065L11.5962 114.566L9.8305 90.4501Z" fill="#85664F"/>
<path d="M14.7698 61.8353L5.91023 51.4436C4.62926 49.9412 2.258 50.1148 1.20951 51.7877L-6.04245 63.3591C-7.31381 65.3879 -5.74021 68.001 -3.35244 67.8262L12.7589 66.6466C15.1471 66.4718 16.3233 63.6573 14.7698 61.8353Z" fill="#42995F"/>
<path d="M22.025 78.7109L6.54835 59.5323C5.26669 57.9439 2.79293 58.1251 1.75608 59.8832L-10.762 81.1114C-11.9597 83.1427 -10.3828 85.6833 -8.03088 85.5111L19.9638 83.4615C22.3158 83.2893 23.5058 80.5461 22.025 78.7109Z" fill="#42995F"/>
<path d="M29.1766 95.7935L7.17183 67.7356C5.89088 66.1024 3.36339 66.2874 2.33398 68.0898L-15.3496 99.0534C-16.5099 101.085 -14.9315 103.589 -12.598 103.418L27.0903 100.512C29.4235 100.341 30.6205 97.6345 29.1766 95.7935Z" fill="#42995F"/>
</g>
<defs>
<clipPath id="clip0_1311_18478">
<rect width="91.65" height="98.7" fill="white" transform="translate(7.45898 11.457)"/>
</clipPath>
</defs>
</svg>
