<svg width="85" height="86" viewBox="0 0 85 86" fill="none" xmlns="http://www.w3.org/2000/svg">
<path d="M58.002 50.9355H64.1894C64.7152 50.9355 65.1414 51.3617 65.1414 51.8875V61.6447C65.1414 64.2734 63.0104 66.4043 60.3817 66.4043H58.002V50.9355Z" fill="#D1D6DB"/>
<path d="M15.166 15.2378C15.166 14.1864 16.0184 13.334 17.0699 13.334H56.0986C57.1501 13.334 58.0025 14.1864 58.0025 15.2378V66.4037H17.0699C16.0184 66.4037 15.166 65.5514 15.166 64.4999V15.2378Z" fill="#E5E8EB"/>
<path fill-rule="evenodd" clip-rule="evenodd" d="M58.0045 63.5098H58.002V63.6305V66.4045H60.7142C59.214 66.3911 58.002 65.1543 58.002 63.6305C58.002 63.59 58.0028 63.5498 58.0045 63.5098ZM60.7633 66.4045C60.7949 66.4042 60.8264 66.4034 60.8577 66.402V66.4045H60.7633Z" fill="#E5E8EB"/>
<rect x="19.5" y="31.9375" width="18.2947" height="2.67729" rx="1.33864" transform="rotate(-45 19.5 31.9375)" fill="white"/>
<rect width="18.2947" height="2.67729" rx="1.33864" transform="matrix(-0.707107 -0.707107 -0.707107 0.707107 34.5 31.9375)" fill="white"/>
<path d="M54.502 57.0391L56.2868 53.9476L69.477 61.563L67.6922 64.6545L54.502 57.0391Z" fill="#6B7684"/>
<path d="M61.7706 62.0601C61.4292 61.8629 61.3122 61.4263 61.5093 61.0848L63.2942 57.9934C63.4913 57.6519 63.928 57.5349 64.2694 57.732L72.4102 62.4322C73.6054 63.1222 74.0149 64.6504 73.3249 65.8456C72.6349 67.0408 71.1066 67.4502 69.9115 66.7602L61.7706 62.0601Z" fill="#1778FB"/>
<path d="M53.2945 39.8548C59.2703 43.3049 61.3177 50.9461 57.8676 56.9219C54.4175 62.8977 46.7763 64.9452 40.8006 61.495C34.8248 58.0449 32.7773 50.4037 36.2274 44.4279C39.6776 38.4521 47.3187 36.4047 53.2945 39.8548Z" fill="white" fill-opacity="0.7"/>
<path fill-rule="evenodd" clip-rule="evenodd" d="M54.5701 55.0181C56.9687 50.8635 55.5453 45.551 51.3907 43.1524C47.2361 40.7537 41.9237 42.1772 39.525 46.3318C37.1263 50.4864 38.5498 55.7988 42.7044 58.1975C46.859 60.5961 52.1714 59.1727 54.5701 55.0181ZM57.8676 56.9219C61.3177 50.9461 59.2703 43.3049 53.2945 39.8548C47.3187 36.4047 39.6776 38.4521 36.2274 44.4279C32.7773 50.4037 34.8248 58.0449 40.8006 61.495C46.7763 64.9452 54.4175 62.8977 57.8676 56.9219Z" fill="#8B95A1"/>
</svg>
