<svg width="151" height="150" viewBox="0 0 151 150" fill="none" xmlns="http://www.w3.org/2000/svg">
<path d="M100.678 126.721C100.678 122.148 89.5566 118.441 75.8401 118.441C62.1236 118.441 51.0024 122.148 51.0024 126.721C51.0024 131.293 62.1236 135 75.8401 135C89.5566 135 100.678 131.293 100.678 126.721Z" fill="#F2F4F6"/>
<path d="M108.59 72.1458C117.835 56.1373 114.249 35.7984 100.085 23.912C85.9221 12.0293 65.2743 12.0293 51.1111 23.912C36.9479 35.7984 33.3615 56.1373 42.6065 72.1458L42.6437 72.2091C43.5329 73.7344 44.5262 75.2002 45.6162 76.5879L69.6866 105.167C71.3943 106.875 72.1086 108.59 75.628 108.59C78.0387 108.456 80.2449 107.187 81.573 105.167L105.662 76.4205C106.689 75.1035 107.623 73.7195 108.46 72.276L108.59 72.1458Z" fill="#1778FB"/>
<path d="M90.8286 53.0978C90.8286 61.5131 84.0055 68.3362 75.5902 68.3362C67.1749 68.3362 60.3518 61.5131 60.3518 53.0978C60.3518 44.6824 67.1749 37.8594 75.5902 37.8594C84.0055 37.8594 90.8286 44.6824 90.8286 53.0978Z" fill="#0956BE"/>
</svg>
