<svg width="393" height="250" viewBox="0 0 393 250" fill="none" xmlns="http://www.w3.org/2000/svg">
<mask id="path-1-inside-1_383_4248" fill="white">
<path d="M24 25C24 19.4772 28.4772 15 34 15H177C182.523 15 187 19.4772 187 25V66H24V25Z"/>
</mask>
<path d="M24 25C24 19.4772 28.4772 15 34 15H177C182.523 15 187 19.4772 187 25V66H24V25Z" fill="#F9FAFB"/>
<path d="M23 25C23 18.9249 27.9249 14 34 14H177C183.075 14 188 18.9249 188 25H186C186 20.0294 181.971 16 177 16H34C29.0294 16 25 20.0294 25 25H23ZM187 66H24H187ZM23 66V25C23 18.9249 27.9249 14 34 14V16C29.0294 16 25 20.0294 25 25V66H23ZM177 14C183.075 14 188 18.9249 188 25V66H186V25C186 20.0294 181.971 16 177 16V14Z" fill="#E5E8EB" mask="url(#path-1-inside-1_383_4248)"/>
<path d="M53.4473 39.6523V41.2344H48.7539V45.084H55.0469V46.666H40.5273V45.084H46.7852V41.2344H42.1973V33.9395H44.2012V39.6523H53.4473ZM61.8672 35.4863C61.8584 37.5957 63.124 39.6523 65.5938 40.4961L64.5215 42.0254C62.8076 41.3838 61.5859 40.1445 60.9092 38.5801C60.2324 40.3291 58.9316 41.7002 57.0684 42.3945L56.0312 40.8477C58.5889 39.9863 59.8896 37.7891 59.8984 35.4688V33.6582H61.8672V35.4863ZM58.9141 48.248V43.2031H60.9004V46.666H69.7422V48.248H58.9141ZM64.2754 37.7891V36.1895H67.4395V32.6914H69.3906V44.4863H67.4395V37.7891H64.2754Z" fill="#6B7684"/>
<path d="M24.5 66.5H186.5V225C186.5 230.247 182.247 234.5 177 234.5H34C28.7533 234.5 24.5 230.247 24.5 225V66.5Z" fill="white" stroke="#E5E8EB"/>
<path d="M74 124C74 121.791 68.627 120 62 120C55.373 120 50 121.791 50 124C50 126.209 55.373 128 62 128C68.627 128 74 126.209 74 124Z" fill="#F2F4F6"/>
<mask id="path-6-inside-2_383_4248" fill="white">
<path d="M207 25C207 19.4772 211.477 15 217 15H360C365.523 15 370 19.4772 370 25V66H207V25Z"/>
</mask>
<path d="M207 25C207 19.4772 211.477 15 217 15H360C365.523 15 370 19.4772 370 25V66H207V25Z" fill="#F9FAFB"/>
<path d="M206 25C206 18.9249 210.925 14 217 14H360C366.075 14 371 18.9249 371 25H369C369 20.0294 364.971 16 360 16H217C212.029 16 208 20.0294 208 25H206ZM370 66H207H370ZM206 66V25C206 18.9249 210.925 14 217 14V16C212.029 16 208 20.0294 208 25V66H206ZM360 14C366.075 14 371 18.9249 371 25V66H369V25C369 20.0294 364.971 16 360 16V14Z" fill="#E5E8EB" mask="url(#path-6-inside-2_383_4248)"/>
<path d="M236.834 42.8164V48.5645H234.883V44.3633H226.006V42.8164H236.834ZM223.738 37.4023C223.738 35.1523 225.54 33.5352 227.939 33.5527C229.249 33.5439 230.392 34.0361 231.139 34.8711H234.883V32.6738H236.834V42.0605H234.883V39.9512H231.156C230.4 40.7949 229.258 41.3047 227.939 41.3047C225.54 41.3047 223.738 39.6875 223.738 37.4023ZM225.602 37.4023C225.602 38.7822 226.577 39.6436 227.939 39.6523C229.24 39.6436 230.233 38.7822 230.242 37.4023C230.233 36.0752 229.24 35.1963 227.939 35.2051C226.577 35.1963 225.602 36.0752 225.602 37.4023ZM231.982 38.3691H234.883V36.4707H231.991C232.062 36.7695 232.105 37.0771 232.105 37.4023C232.105 37.7363 232.062 38.0615 231.982 38.3691Z" fill="#6B7684"/>
<path d="M207.5 66.5H369.5V225C369.5 230.247 365.247 234.5 360 234.5H217C211.753 234.5 207.5 230.247 207.5 225V66.5Z" fill="white" stroke="#E5E8EB"/>
<path d="M65 109H132.082C143.082 109 152 117.918 152 128.918V128.918C152 139.918 143.082 148.836 132.082 148.836H97.885C86.5179 148.836 77.303 158.051 77.303 169.418V169.418C77.303 180.785 86.5179 190 97.885 190H134.864" stroke="#E5E8EB" stroke-width="2" stroke-linecap="round" stroke-dasharray="7 7"/>
<path d="M71.7877 112.318C74.7511 107.186 73.6015 100.667 69.0615 96.8567C64.5216 93.0478 57.903 93.0478 53.363 96.8567C48.823 100.667 47.6734 107.186 50.6369 112.318L50.6488 112.338C50.9338 112.827 51.2522 113.297 51.6016 113.742L59.3173 122.903C59.8647 123.45 60.0937 124 61.2218 124C61.9946 123.957 62.7017 123.55 63.1275 122.903L70.8491 113.688C71.1783 113.266 71.4776 112.822 71.7459 112.36L71.7877 112.318Z" fill="#EE3446"/>
<path d="M66.0944 106.212C66.0944 108.91 63.9073 111.097 61.2098 111.097C58.5123 111.097 56.3252 108.91 56.3252 106.212C56.3252 103.515 58.5123 101.328 61.2098 101.328C63.9073 101.328 66.0944 103.515 66.0944 106.212Z" fill="#AD2943"/>
<path d="M152 200C152 197.791 146.627 196 140 196C133.373 196 128 197.791 128 200C128 202.209 133.373 204 140 204C146.627 204 152 202.209 152 200Z" fill="#F2F4F6"/>
<path d="M150.788 186.318C153.751 181.186 152.602 174.667 148.062 170.857C143.522 167.048 136.903 167.048 132.363 170.857C127.823 174.667 126.673 181.186 129.637 186.318L129.649 186.338C129.934 186.827 130.252 187.297 130.602 187.742L138.317 196.903C138.865 197.45 139.094 198 140.222 198C140.995 197.957 141.702 197.55 142.127 196.903L149.849 187.688C150.178 187.266 150.478 186.822 150.746 186.36L150.788 186.318Z" fill="#EE3446"/>
<path d="M145.094 180.212C145.094 182.91 142.907 185.097 140.21 185.097C137.512 185.097 135.325 182.91 135.325 180.212C135.325 177.515 137.512 175.328 140.21 175.328C142.907 175.328 145.094 177.515 145.094 180.212Z" fill="#AD2943"/>
<path d="M308.339 197.723C308.339 194.01 299.308 191 288.169 191C277.031 191 268 194.01 268 197.723C268 201.436 277.031 204.446 288.169 204.446C299.308 204.446 308.339 201.436 308.339 197.723Z" fill="#F2F4F6"/>
<path d="M314.764 153.405C322.271 140.406 319.359 123.889 307.858 114.237C296.356 104.588 279.589 104.588 268.088 114.237C256.587 123.889 253.674 140.406 261.182 153.405L261.212 153.457C261.934 154.695 262.741 155.886 263.626 157.013L283.172 180.221C284.559 181.607 285.139 183 287.997 183C289.955 182.891 291.746 181.861 292.825 180.221L312.386 156.877C313.22 155.807 313.978 154.683 314.658 153.511L314.764 153.405Z" fill="#1778FB"/>
<path d="M300.341 137.937C300.341 144.771 294.8 150.312 287.967 150.312C281.133 150.312 275.592 144.771 275.592 137.937C275.592 131.104 281.133 125.563 287.967 125.563C294.8 125.563 300.341 131.104 300.341 137.937Z" fill="#0956BE"/>
</svg>
