<svg width="393" height="250" viewBox="0 0 393 250" fill="none" xmlns="http://www.w3.org/2000/svg">
<g clip-path="url(#clip0_383_4164)">
<path d="M49.708 118H116.79C127.79 118 136.708 126.918 136.708 137.918V137.918C136.708 148.918 127.79 157.836 116.79 157.836H82.593C71.2259 157.836 62.011 167.051 62.011 178.418V178.418C62.011 189.785 71.2259 199 82.593 199H119.572" stroke="#1778FB" stroke-opacity="0.3" stroke-width="2" stroke-linecap="round" stroke-dasharray="7 7"/>
<path d="M71.0945 93.8571C77.219 83.252 74.8431 69.7782 65.4605 61.9039C56.0779 54.032 42.3995 54.032 33.0169 61.9039C23.6343 69.7782 21.2584 83.252 27.3829 93.8571L27.4075 93.899C27.9965 94.9094 28.6546 95.8805 29.3767 96.7998L45.3225 115.733C46.4537 116.864 46.9269 118 49.2584 118C50.8554 117.911 52.3169 117.071 53.1968 115.733L69.1549 96.6888C69.8351 95.8164 70.4537 94.8996 71.0083 93.9433L71.0945 93.8571Z" fill="#1778FB"/>
<path d="M59.3284 81.2384C59.3284 86.8133 54.8084 91.3333 49.2336 91.3333C43.6587 91.3333 39.1387 86.8133 39.1387 81.2384C39.1387 75.6636 43.6587 71.1436 49.2336 71.1436C54.8084 71.1436 59.3284 75.6636 59.3284 81.2384Z" fill="#0956BE"/>
<path d="M105 193.65C105 182.521 114.021 173.5 125.15 173.5H423.5V213.8H125.15C114.021 213.8 105 204.779 105 193.65Z" fill="#F2F4F6"/>
<path d="M175.815 37H424.15V198.85H138.8C130.185 198.85 123.2 191.866 123.2 183.25V144.038C123.2 142.031 123.587 140.044 124.34 138.184L161.355 46.7464C163.739 40.8554 169.46 37 175.815 37Z" fill="#D1D6DB"/>
<path d="M123.2 156.6C131.098 156.6 137.5 163.002 137.5 170.9V171.964C137.5 172.812 136.812 173.5 135.964 173.5H123.2V156.6Z" fill="white"/>
<path d="M273.315 37H424.15V198.85H236.3C227.685 198.85 220.7 191.866 220.7 183.25V144.038C220.7 142.031 221.087 140.044 221.84 138.184L258.855 46.7464C261.239 40.8554 266.96 37 273.315 37Z" fill="#B0B8C1"/>
<path d="M160.277 49.5995L160.298 49.5474L160.31 49.4925C161.777 42.5876 167.874 37.65 174.934 37.65H266.673L244.256 129.559C242.339 137.419 235.296 142.95 227.206 142.95H123.85V142.639C123.85 141.613 123.956 140.59 124.165 139.586L160.277 49.5995Z" fill="#F2F4F6" stroke="#E5E8EB" stroke-width="1.3"/>
<path d="M266.434 37C259.068 37 252.705 42.1523 251.174 49.3574L221.041 139.397C220.814 140.463 220.7 141.549 220.7 142.639V143.6H227.206C235.596 143.6 242.899 137.864 244.887 129.713L278.5 37H266.434Z" fill="#D1D6DB"/>
<path d="M288.654 59.854C289.208 57.5075 291.303 55.8501 293.714 55.8501H424.15V127.35H279.273C275.917 127.35 273.44 124.219 274.212 120.954L288.654 59.854Z" fill="#6B7684"/>
<path d="M220.7 156.6H207.464C198.979 156.6 192.1 163.479 192.1 171.964C192.1 172.812 192.788 173.5 193.637 173.5H220.7V156.6Z" fill="white"/>
<path d="M220.7 156.6H233.05C237.717 156.6 241.5 160.383 241.5 165.05C241.5 169.717 237.717 173.5 233.05 173.5H220.7V156.6Z" fill="#D1D6DB"/>
<path fill-rule="evenodd" clip-rule="evenodd" d="M423.501 198.85H138.801C131.768 198.85 125.822 194.196 123.875 187.8H423.501V198.85Z" fill="#B0B8C1"/>
<path fill-rule="evenodd" clip-rule="evenodd" d="M236.293 198.85C229.263 198.846 223.321 194.194 221.375 187.8H423.501V198.85H236.293Z" fill="#8B95A1"/>
<path d="M380.343 175.69H371.097V214.634H380.343V175.69Z" fill="#85664F"/>
<path d="M388.182 135.514L380.048 124.427C377.903 121.503 373.536 121.503 371.392 124.427L363.258 135.514C360.657 139.06 363.189 144.057 367.587 144.057H383.853C388.25 144.057 390.782 139.06 388.182 135.514Z" fill="#176C46"/>
<path d="M396.461 159.093L380.098 135.474C377.98 132.417 373.461 132.417 371.343 135.474L354.979 159.093C352.532 162.625 355.06 167.451 359.357 167.451H392.084C396.381 167.451 398.908 162.625 396.461 159.093Z" fill="#176C46"/>
<path d="M406.363 185.667L378.645 144.446C377.248 142.369 374.192 142.369 372.796 144.446L345.077 185.667C343.503 188.008 345.181 191.158 348.002 191.158H403.439C406.26 191.158 407.937 188.008 406.363 185.667Z" fill="#176C46"/>
<path d="M336.845 170.578H324.39V214.634H336.845V170.578Z" fill="#85664F"/>
<path d="M349.628 119.237L334.911 99.1753C332.784 96.2749 328.452 96.2749 326.324 99.1753L311.607 119.237C309.027 122.754 311.538 127.712 315.901 127.712H345.334C349.696 127.712 352.208 122.754 349.628 119.237Z" fill="#42995F"/>
<path d="M360.566 150.866L334.995 113.958C332.877 110.901 328.358 110.901 326.24 113.958L300.669 150.866C298.222 154.398 300.75 159.224 305.046 159.224H356.188C360.485 159.224 363.012 154.398 360.566 150.866Z" fill="#42995F"/>
<path d="M371.288 182.86L335.036 128.949C332.926 125.811 328.309 125.811 326.198 128.949L289.946 182.86C287.567 186.398 290.102 191.157 294.365 191.157H366.87C371.132 191.157 373.667 186.398 371.288 182.86Z" fill="#42995F"/>
</g>
<defs>
<clipPath id="clip0_383_4164">
<rect width="393" height="250" fill="white"/>
</clipPath>
</defs>
</svg>
