<svg width="393" height="250" viewBox="0 0 393 250" fill="none" xmlns="http://www.w3.org/2000/svg">
<g clip-path="url(#clip0_383_4134)">
<path d="M-19 32H409.5" stroke="#E5E8EB" stroke-width="2" stroke-linecap="round" stroke-dasharray="7 7"/>
<path d="M82.8037 226C82.8037 223.791 62.207 222 36.8037 222C11.4004 222 -9.19629 223.791 -9.19629 226C-9.19629 228.209 11.4004 230 36.8037 230C62.207 230 82.8037 228.209 82.8037 226Z" fill="#F9FAFB"/>
<rect x="-28.4613" y="53.4326" width="119" height="159" rx="10.5" transform="rotate(-4.62814 -28.4613 53.4326)" fill="white" stroke="#E5E8EB"/>
<rect x="-19.9771" y="65.2866" width="104" height="112" rx="5" transform="rotate(-4.62814 -19.9771 65.2866)" fill="#F2F4F6"/>
<path fill-rule="evenodd" clip-rule="evenodd" d="M35.804 19C34.037 19 32.6527 20.5195 32.8169 22.2788L35.6169 52.2788C35.7609 53.8209 37.0551 55 38.604 55H47.4179C48.9667 55 50.261 53.8209 50.4049 52.2788L53.2049 22.2788C53.3691 20.5195 51.9849 19 50.2179 19H35.804ZM43.0109 25C41.6302 25 40.5109 26.1193 40.5109 27.5V38.5C40.5109 39.8807 41.6302 41 43.0109 41C44.3916 41 45.5109 39.8807 45.5109 38.5V27.5C45.5109 26.1193 44.3916 25 43.0109 25Z" fill="#1778FB"/>
<path d="M242.333 226C242.333 223.791 221.736 222 196.333 222C170.93 222 150.333 223.791 150.333 226C150.333 228.209 170.93 230 196.333 230C221.736 230 242.333 228.209 242.333 226Z" fill="#F9FAFB"/>
<rect x="142.798" y="44.5326" width="119" height="159" rx="10.5" transform="rotate(3.87536 142.798 44.5326)" fill="white" stroke="#E5E8EB"/>
<rect x="149.436" y="57.5107" width="104" height="112" rx="5" transform="rotate(3.87536 149.436 57.5107)" fill="#DDECFF"/>
<path fill-rule="evenodd" clip-rule="evenodd" d="M195.333 19C193.566 19 192.182 20.5195 192.346 22.2788L195.146 52.2788C195.29 53.8209 196.584 55 198.133 55H206.947C208.496 55 209.79 53.8209 209.934 52.2788L212.734 22.2788C212.898 20.5195 211.514 19 209.747 19H195.333ZM202.54 25C201.16 25 200.04 26.1193 200.04 27.5V38.5C200.04 39.8807 201.16 41 202.54 41C203.921 41 205.04 39.8807 205.04 38.5V27.5C205.04 26.1193 203.921 25 202.54 25Z" fill="#1778FB"/>
<path d="M401.862 226C401.862 223.791 381.265 222 355.862 222C330.458 222 309.862 223.791 309.862 226C309.862 228.209 330.458 230 355.862 230C381.265 230 401.862 228.209 401.862 226Z" fill="#F9FAFB"/>
<rect x="290.597" y="53.4326" width="119" height="159" rx="10.5" transform="rotate(-4.62814 290.597 53.4326)" fill="white" stroke="#E5E8EB"/>
<rect x="299.081" y="65.2866" width="104" height="112" rx="5" transform="rotate(-4.62814 299.081 65.2866)" fill="#FFEEC3"/>
<path fill-rule="evenodd" clip-rule="evenodd" d="M354.862 19C353.095 19 351.711 20.5195 351.875 22.2788L354.675 52.2788C354.819 53.8209 356.113 55 357.662 55H366.476C368.025 55 369.319 53.8209 369.463 52.2788L372.263 22.2788C372.427 20.5195 371.043 19 369.276 19H354.862ZM362.069 25C360.688 25 359.569 26.1193 359.569 27.5V38.5C359.569 39.8807 360.688 41 362.069 41C363.45 41 364.569 39.8807 364.569 38.5V27.5C364.569 26.1193 363.45 25 362.069 25Z" fill="#1778FB"/>
</g>
<defs>
<clipPath id="clip0_383_4134">
<rect width="393" height="250" fill="white"/>
</clipPath>
</defs>
</svg>
