<svg width="22" height="22" viewBox="0 0 22 22" fill="none" xmlns="http://www.w3.org/2000/svg">
<rect x="1" y="1" width="20" height="20" rx="10" fill="black"/>
<rect x="1" y="1" width="20" height="20" rx="10" stroke="white" stroke-width="2"/>
<g clip-path="url(#clip0_703_23130)">
<path d="M15.0131 8.409C14.952 8.454 13.8737 9.031 13.8737 10.314C13.8737 11.798 15.2458 12.323 15.2868 12.336C15.2805 12.368 15.0689 13.055 14.5634 13.755C14.1127 14.371 13.6421 14.986 12.926 14.986C12.21 14.986 12.0257 14.591 11.1991 14.591C10.3935 14.591 10.1071 14.999 9.45216 14.999C8.79719 14.999 8.34019 14.429 7.81474 13.729C7.20611 12.907 6.71436 11.63 6.71436 10.418C6.71436 8.474 8.04535 7.443 9.35528 7.443C10.0513 7.443 10.6315 7.877 11.0685 7.877C11.4845 7.877 12.1331 7.417 12.925 7.417C13.2251 7.417 14.3033 7.443 15.0131 8.409ZM12.549 6.594C12.8765 6.225 13.1082 5.713 13.1082 5.201C13.1082 5.13 13.1019 5.058 13.0882 5C12.5554 5.019 11.9214 5.337 11.5392 5.758C11.2391 6.082 10.959 6.594 10.959 7.113C10.959 7.191 10.9727 7.269 10.979 7.294C11.0127 7.3 11.0675 7.307 11.1222 7.307C11.6003 7.307 12.2015 7.003 12.549 6.594Z" fill="white"/>
</g>
<defs>
<clipPath id="clip0_703_23130">
<rect width="8.57143" height="10" fill="white" transform="translate(6.71436 5)"/>
</clipPath>
</defs>
</svg>
