<svg width="22" height="22" viewBox="0 0 22 22" fill="none" xmlns="http://www.w3.org/2000/svg">
<rect x="1" y="1" width="20" height="20" rx="10" fill="#FBE400"/>
<rect x="1" y="1" width="20" height="20" rx="10" stroke="white" stroke-width="2"/>
<path d="M11 6.43732C8.23923 6.43732 6 8.19523 6 10.3652C6 11.7765 6.94874 13.0145 8.37273 13.7059C8.26771 14.0933 7.99359 15.1119 7.93841 15.3294C7.87077 15.6 8.03809 15.5965 8.14845 15.524C8.23389 15.4674 9.51905 14.599 10.0726 14.2241C10.3734 14.2683 10.6832 14.2913 11 14.2913C13.7608 14.2913 16 12.5334 16 10.3634C16 8.19346 13.7608 6.43555 11 6.43555" fill="#3E1A1D"/>
</svg>
