<svg width="393" height="278" viewBox="0 0 393 278" fill="none" xmlns="http://www.w3.org/2000/svg">
<path d="M109.817 126.733L357.749 126.733C363.279 126.733 367.759 131.222 367.749 136.752L367.691 168.298C367.681 173.813 363.207 178.279 357.691 178.279L-30.248 178.279C-35.7709 178.279 -40.248 173.802 -40.248 168.279L-40.2481 85.0229C-40.2481 77.3545 -31.9723 72.5396 -25.3059 76.3295L25.1797 105.03C29.5201 107.498 35.0153 106.386 38.055 102.425L43.5174 95.3073C46.7384 91.1101 52.6715 90.1482 57.0537 93.1128L104.213 125.016C105.868 126.135 107.819 126.733 109.817 126.733Z" fill="#0C9400"/>
<path d="M246.151 135.733L-1.78111 135.733C-7.31111 135.733 -11.7912 140.222 -11.7811 145.752L-11.7233 177.298C-11.7133 182.813 -7.23906 187.279 -1.72336 187.279L386.216 187.279C391.739 187.279 396.216 182.802 396.216 177.279L396.216 94.0229C396.216 86.3545 387.94 81.5396 381.274 85.3295L330.788 114.03C326.448 116.498 320.952 115.386 317.913 111.425L312.45 104.307C309.229 100.11 303.296 99.1482 298.914 102.113L251.754 134.016C250.1 135.135 248.148 135.733 246.151 135.733Z" fill="#80C84B"/>
<rect y="147.999" width="429" height="11" fill="white"/>
<path d="M196 150.723C196 143.781 201.628 138.153 208.57 138.153H394.686V163.293H208.57C201.628 163.293 196 157.665 196 150.723Z" fill="#6B7684" fill-opacity="0.1"/>
<path d="M240.674 52.999H395.59V153.964H217.584C212.209 153.964 207.852 149.607 207.852 144.232V119.771C207.852 118.519 208.093 117.28 208.563 116.119L231.654 59.079C233.141 55.4041 236.709 52.999 240.674 52.999Z" fill="#D1D6DB"/>
<path d="M207.852 127.608C212.779 127.608 216.773 131.602 216.773 136.529V137.193C216.773 137.722 216.344 138.151 215.814 138.151H207.852V127.608Z" fill="white"/>
<path d="M301.496 52.999H395.59V153.964H278.406C273.031 153.964 268.674 149.607 268.674 144.232V119.771C268.674 118.519 268.916 117.28 269.385 116.119L292.476 59.079C293.963 55.4041 297.532 52.999 301.496 52.999Z" fill="#B0B8C1"/>
<path d="M230.982 60.8588L230.995 60.8263L231.002 60.7921C231.917 56.4847 235.721 53.4045 240.124 53.4045H297.353L283.369 110.739C282.173 115.642 277.78 119.092 272.732 119.092H208.258V118.899C208.258 118.259 208.323 117.62 208.454 116.994L230.982 60.8588Z" fill="#F2F4F6" stroke="#E5E8EB" stroke-width="0.810962"/>
<path d="M297.204 52.999C292.609 52.999 288.64 56.2131 287.685 60.7078L268.887 116.876C268.746 117.541 268.674 118.219 268.674 118.899V119.498H272.733C277.967 119.498 282.522 115.92 283.763 110.835L304.731 52.999H297.204Z" fill="#D1D6DB"/>
<path d="M311.065 67.2565C311.411 65.7927 312.718 64.7588 314.222 64.7588H395.59V109.362H305.213C303.12 109.362 301.574 107.409 302.056 105.372L311.065 67.2565Z" fill="#6B7684"/>
<path d="M268.674 127.608H260.417C255.124 127.608 250.833 131.899 250.833 137.193C250.833 137.722 251.262 138.151 251.792 138.151H268.674V127.608Z" fill="white"/>
<path d="M268.674 127.608H276.378C279.29 127.608 281.65 129.968 281.65 132.88C281.65 135.791 279.29 138.151 276.378 138.151H268.674V127.608Z" fill="#D1D6DB"/>
<path fill-rule="evenodd" clip-rule="evenodd" d="M395.184 153.966H217.583C213.195 153.966 209.486 151.062 208.271 147.071H395.184V153.966Z" fill="#B0B8C1"/>
<path fill-rule="evenodd" clip-rule="evenodd" d="M395.184 153.965H278.406C274.019 153.965 270.31 151.062 269.095 147.072H395.184V153.965Z" fill="#8B95A1"/>
</svg>
