<svg width="18" height="18" viewBox="0 0 18 18" fill="none" xmlns="http://www.w3.org/2000/svg">
<g id="Star">
<path id="Vector" d="M9.17474 13.405C9.06544 13.3474 8.93477 13.3473 8.82541 13.4048L5.04371 15.3931C4.76859 15.5377 4.44704 15.3041 4.4996 14.9978L5.22201 10.7864C5.24289 10.6647 5.20249 10.5405 5.11398 10.4543L2.05058 7.47241C1.82773 7.25549 1.95058 6.87718 2.25836 6.83257L6.48517 6.21999C6.60737 6.20228 6.71302 6.12556 6.76766 6.01483L8.65859 2.18333C8.79615 1.90461 9.19359 1.90461 9.33115 2.18333L11.2221 6.01483C11.2767 6.12555 11.3824 6.20228 11.5046 6.21999L15.7314 6.83257C16.0392 6.87718 16.162 7.25549 15.9392 7.47241L12.8758 10.4543C12.7873 10.5405 12.7468 10.6647 12.7677 10.7864L13.49 14.9969C13.5426 15.3034 13.2207 15.537 12.9456 15.392L9.17474 13.405Z" fill="#FBB12C"/>
</g>
</svg>
