<svg width="206" height="86" viewBox="0 0 206 86" fill="none" xmlns="http://www.w3.org/2000/svg">
<g id="_&#235;&#160;&#136;&#236;&#157;&#180;&#236;&#150;&#180;_1" clip-path="url(#clip0_383_4098)">
<g id="Group">
<path id="Vector" d="M44.419 52.9725H21.8919C20.0554 52.9725 18.3017 52.1846 17.084 50.8074C15.8663 49.4302 15.2939 47.5962 15.5156 45.7687L17.6664 28.1764C17.7954 27.1071 18.5863 26.2364 19.6352 26.0013C20.6841 25.7663 21.7694 26.2165 22.3419 27.1269C24.7144 30.8944 28.7844 33.1422 33.2249 33.1422C37.6655 33.1422 41.6197 30.954 44.0021 27.2925C44.5845 26.3953 45.6665 25.9616 46.7088 26.2033C47.7511 26.445 48.5287 27.3123 48.6578 28.375L50.7854 45.7687C51.0104 47.5928 50.438 49.4302 49.2203 50.8074C48.0026 52.1846 46.2489 52.9725 44.4124 52.9725H44.419ZM22.0408 34.3307L20.5683 46.3878C20.5054 46.9076 20.747 47.2651 20.8926 47.4339C21.0415 47.6028 21.3691 47.8842 21.8919 47.8842H44.419C44.9418 47.8842 45.2694 47.6028 45.4183 47.4339C45.5672 47.2651 45.8055 46.9076 45.7426 46.3878L44.2801 34.4334C41.173 36.8666 37.3048 38.2339 33.2283 38.2339C29.1517 38.2339 25.1677 36.8302 22.0408 34.3307Z" fill="white"/>
<g id="Group_2">
<path id="Vector_2" d="M27.014 45.0536C28.3754 45.0536 29.4791 43.9138 29.4791 42.5077C29.4791 41.1017 28.3754 39.9619 27.014 39.9619C25.6525 39.9619 24.5488 41.1017 24.5488 42.5077C24.5488 43.9138 25.6525 45.0536 27.014 45.0536Z" fill="white"/>
<path id="Vector_3" d="M39.2967 45.0536C40.6582 45.0536 41.7618 43.9138 41.7618 42.5077C41.7618 41.1017 40.6582 39.9619 39.2967 39.9619C37.9352 39.9619 36.8315 41.1017 36.8315 42.5077C36.8315 43.9138 37.9352 45.0536 39.2967 45.0536Z" fill="white"/>
</g>
<path id="Vector_4" d="M33.2249 85.7042C31.6796 85.7042 30.1311 85.3335 28.8075 84.5886C28.7678 84.5654 28.7248 84.5422 28.6851 84.5158C28.4402 84.3668 28.1953 84.2178 27.9538 84.0622C27.9372 84.0523 27.924 84.0423 27.9075 84.0324C12.9412 74.6602 2.68685 58.6569 0.479794 41.207C0.473176 41.154 0.469867 41.1043 0.466558 41.0514L0 34.7712L5.32075 37.8699L5.53914 40.6342C7.57413 56.5746 16.9615 71.1907 30.6539 79.7419C30.677 79.7552 30.7002 79.7717 30.72 79.785C30.9252 79.9141 31.1304 80.0432 31.3388 80.169C32.4539 80.7715 34.0951 80.755 35.1937 80.1293C35.3128 80.0564 35.432 79.9836 35.5511 79.9074L35.6437 79.8512C35.6702 79.8346 35.6967 79.8181 35.7231 79.8015C49.5611 71.1974 58.9948 56.4521 60.9636 40.3528C60.9702 40.2866 60.9835 40.2204 60.9967 40.1542C61.9166 35.6353 61.632 30.3516 60.1992 25.2765C58.611 19.6651 55.7487 14.7522 51.9203 11.0775C51.874 11.0345 51.831 10.9881 51.7913 10.9451C51.424 10.571 44.9021 4.11208 35.2764 5.2145C33.1157 5.46279 28.0497 6.03883 24.314 10.2002L24.2908 10.2267C22.3187 12.362 20.9653 15.3746 20.5749 18.4932C20.4922 19.152 20.4525 19.8042 20.4591 20.4431C21.5609 19.5658 22.954 19.046 24.4529 19.046H41.8612C45.1006 19.046 47.8404 21.4727 48.2342 24.6905L48.6677 28.2362L43.6182 28.8519L43.1848 25.3063C43.102 24.6376 42.5362 24.1344 41.8612 24.1344H24.4529C23.7812 24.1344 23.2121 24.6376 23.1294 25.3063L22.7191 28.6533C22.59 29.7094 21.819 30.5734 20.7867 30.8184C19.7543 31.0667 18.6756 30.6429 18.0833 29.7623C15.8861 26.4849 14.9762 22.2606 15.5255 17.8642C16.0483 13.6597 17.8318 9.72349 20.5418 6.78702C25.5647 1.2021 32.1991 0.443977 34.6974 0.159268C45.2694 -1.04909 52.8071 4.97614 54.8653 6.84992C55.0837 7.04855 55.2954 7.24388 55.4873 7.45244C59.9478 11.7496 63.2699 17.4338 65.0965 23.896C66.7377 29.6994 67.0587 35.7975 66.0031 41.0745C63.8225 58.6536 53.5119 74.743 38.4034 84.135C38.3868 84.145 38.3736 84.1549 38.357 84.1648C38.3504 84.1681 38.3438 84.1715 38.3372 84.1748L38.2313 84.241C38.1122 84.3171 37.9898 84.39 37.8673 84.4661C37.8508 84.476 37.8342 84.486 37.8177 84.4959C37.8045 84.5025 37.7912 84.5124 37.778 84.5191C36.4213 85.3103 34.8231 85.7042 33.2249 85.7042ZM51.5365 10.6173C51.6225 10.7531 51.7052 10.8524 51.7615 10.9186C51.6788 10.8226 51.6027 10.7233 51.5365 10.6173ZM51.1361 9.20704C51.1295 9.56458 51.199 9.87577 51.2949 10.134C51.1857 9.84267 51.1295 9.52816 51.1361 9.20704Z" fill="white"/>
<g id="Group_3">
<path id="Vector_5" d="M21.2629 56.283H15.1216L22.7387 48.1191L26.3355 51.7177L21.2629 56.283Z" fill="white"/>
<path id="Vector_6" d="M45.0477 56.283L39.9751 51.7177L43.5719 48.1191L51.189 56.283H45.0477Z" fill="white"/>
</g>
</g>
<g id="Group_4">
<path id="Vector_7" d="M115.803 45.6063V41.3853H107.613V43.62H100.515V28.6728H86.1216V22.2172H107.613V24.998H115.803V18.9397H123.148V45.6063H115.803ZM99.5227 56.5808C99.5227 55.1904 99.8205 53.8993 100.416 52.6081C100.962 51.4163 101.756 50.3238 102.799 49.3803C103.791 48.4865 104.933 47.7913 106.323 47.1954C107.663 46.6988 109.102 46.4008 110.69 46.4008C112.179 46.4008 113.619 46.6988 115.008 47.1954C116.349 47.7913 117.54 48.4865 118.632 49.3803C119.624 50.3238 120.419 51.4163 121.014 52.6081C121.56 53.8993 121.858 55.1904 121.858 56.5808C121.858 57.9712 121.56 59.3617 121.014 60.6031C120.419 61.7949 119.624 62.8874 118.632 63.7813C117.54 64.6751 116.349 65.42 115.008 65.9663C113.619 66.4628 112.179 66.7608 110.69 66.7608C109.102 66.7608 107.663 66.4628 106.323 65.9663C104.933 65.42 103.791 64.6751 102.799 63.7813C101.756 62.8874 100.962 61.7949 100.416 60.6031C99.8205 59.3617 99.5227 58.0209 99.5227 56.5808ZM106.223 56.5808C106.223 57.723 106.62 58.6665 107.514 59.461C108.358 60.2555 109.4 60.6528 110.69 60.6528C111.882 60.6528 112.974 60.2555 113.867 59.461C114.711 58.6665 115.157 57.723 115.157 56.5808C115.157 55.4387 114.711 54.5448 113.867 53.7503C112.974 52.9557 111.882 52.5585 110.69 52.5585C109.4 52.5585 108.358 52.9557 107.514 53.7503C106.62 54.5448 106.223 55.4883 106.223 56.5808ZM107.613 35.327H115.803V31.106H107.613V35.327Z" fill="white"/>
<path id="Vector_8" d="M147.816 55.3395H140.52V33.6387H126.821V27.0341H147.816V55.3395ZM162.309 56.4816H155.063V18.9431H162.309V56.4816Z" fill="white"/>
<path id="Vector_9" d="M192.884 41.2893L187.077 45.4109L179.383 31.6555L171.69 45.4109L165.933 41.2893L179.383 19.7375L192.884 41.2893ZM204.597 64.9267H179.135V49.0857H186.431V58.5704H204.597V64.9267ZM189.757 28.4807H198.443V18.9463H205.689V48.642H198.443V34.9363H189.757V28.4807Z" fill="white"/>
</g>
</g>
<defs>
<clipPath id="clip0_383_4098">
<rect width="205.689" height="85.7039" fill="white"/>
</clipPath>
</defs>
</svg>
