<svg width="81" height="80" viewBox="0 0 81 80" fill="none" xmlns="http://www.w3.org/2000/svg">
<g id="Search3">
<g id="Group 52">
<path id="Rectangle 17" d="M39.666 43.0449L43.2887 39.4222L58.7456 54.8791L55.1228 58.5018L39.666 43.0449Z" fill="#6B7684"/>
<path id="Rectangle 18" d="M47.8788 52.705C47.4787 52.3049 47.4787 51.6561 47.8788 51.2559L51.5016 47.6332C51.9017 47.2331 52.5505 47.2331 52.9506 47.6332L62.4904 57.173C63.8909 58.5736 63.8909 60.8443 62.4904 62.2448C61.0898 63.6454 58.8191 63.6454 57.4186 62.2448L47.8788 52.705Z" fill="#1778FB"/>
<path id="Ellipse 438" d="M44.3763 18.7717C51.379 25.7744 51.3789 37.128 44.3762 44.1307C37.3736 51.1334 26.02 51.1334 19.0173 44.1307C12.0147 37.128 12.0147 25.7744 19.0174 18.7717C26.0201 11.769 37.3736 11.769 44.3763 18.7717Z" fill="white" fill-opacity="0.7"/>
<path id="Ellipse 438 (Stroke)" fill-rule="evenodd" clip-rule="evenodd" d="M40.512 40.2665C45.3806 35.3979 45.3806 27.5045 40.5121 22.6359C35.6436 17.7674 27.7501 17.7674 22.8816 22.6359C18.013 27.5045 18.013 35.3979 22.8815 40.2665C27.75 45.135 35.6435 45.135 40.512 40.2665ZM44.3762 44.1307C51.3789 37.128 51.379 25.7744 44.3763 18.7717C37.3736 11.769 26.0201 11.769 19.0174 18.7717C12.0147 25.7744 12.0147 37.128 19.0173 44.1307C26.02 51.1334 37.3736 51.1334 44.3762 44.1307Z" fill="#8B95A1"/>
</g>
</g>
</svg>
