<svg width="40" height="40" viewBox="0 0 40 40" fill="none" xmlns="http://www.w3.org/2000/svg">
<path d="M7.103 34.1833C4.20373 34.1833 2.39334 31.0428 3.84631 28.5339L16.3881 6.87737C17.8377 4.37421 21.4518 4.37421 22.9015 6.87737L35.4432 28.5339C36.8962 31.0428 35.0858 34.1833 32.1865 34.1833H7.103Z" fill="#F04452"/>
<path d="M19.9432 28.3333C20.8427 28.3333 21.5104 27.6408 21.5104 26.7355V26.698C21.5104 25.7927 20.8427 25.1001 19.9432 25.1001C19.0437 25.1001 18.3761 25.7968 18.3761 26.698V26.7355C18.3761 27.6408 19.0437 28.3333 19.9432 28.3333Z" fill="white"/>
<path d="M20.7708 23.0309L21.5463 15.9637C21.5983 15.4172 21.3105 15.0042 20.8227 15H19.0597C18.572 15 18.2881 15.413 18.3401 15.9595L19.1157 23.0309C19.1676 23.5357 19.4915 23.8569 19.9432 23.8569C20.395 23.8569 20.7188 23.5399 20.7708 23.0309Z" fill="white"/>
</svg>
