<svg width="40" height="40" viewBox="0 0 40 40" fill="none" xmlns="http://www.w3.org/2000/svg">
<g id="Warning">
<path id="warning" d="M7.10252 34.1833C4.20324 34.1833 2.39286 31.0428 3.84582 28.5339L16.3876 6.87737C17.8372 4.37421 21.4513 4.37421 22.901 6.87737L35.4427 28.5339C36.8957 31.0428 35.0853 34.1833 32.186 34.1833H7.10252Z" fill="#8B95A1"/>
<g id="Vector">
<path d="M19.9427 28.3333C20.8422 28.3333 21.5099 27.6408 21.5099 26.7355V26.698C21.5099 25.7927 20.8422 25.1001 19.9427 25.1001C19.0432 25.1001 18.3756 25.7968 18.3756 26.698V26.7355C18.3756 27.6408 19.0432 28.3333 19.9427 28.3333Z" fill="white"/>
<path d="M20.7703 23.0309L21.5459 15.9637C21.5978 15.4172 21.31 15.0042 20.8223 15H19.0592C18.5715 15 18.2876 15.413 18.3396 15.9595L19.1152 23.0309C19.1671 23.5357 19.491 23.8569 19.9427 23.8569C20.3945 23.8569 20.7183 23.5399 20.7703 23.0309Z" fill="white"/>
</g>
</g>
</svg>
