<svg width="393" height="391" viewBox="0 0 393 391" fill="none" xmlns="http://www.w3.org/2000/svg">
<rect x="26.7574" y="186.053" width="129.413" height="172.913" rx="11.4187" transform="rotate(-35.0366 26.7574 186.053)" fill="white" stroke="#E5E8EB" stroke-width="1.0875"/>
<g clip-path="url(#clip0_1042_10941)">
<rect x="41.2397" y="192.501" width="113.1" height="121.8" rx="5.4375" transform="rotate(-35.0366 41.2397 192.501)" fill="#F2F4F6"/>
<path d="M134.095 219.881L85.9631 263.385L117.59 304.088L217.179 217.519L164.671 147L155.102 188.818L141.521 187.48L134.095 219.881Z" fill="#DFE4E8"/>
<path d="M124.614 254.692L119.763 258.652L136.442 279.086L141.294 275.126L124.614 254.692Z" fill="#85664F"/>
<path d="M111.52 230.253L102.504 227.919C100.126 227.304 97.8351 229.174 97.9619 231.627L98.443 240.928C98.5969 243.902 102.066 245.44 104.373 243.556L112.908 236.589C115.215 234.706 114.403 230.999 111.52 230.253Z" fill="#176C46"/>
<path d="M125.964 239.08L107.262 233.696C104.841 232.999 102.47 234.934 102.668 237.445L104.198 256.847C104.427 259.748 107.82 261.198 110.074 259.358L127.247 245.34C129.501 243.5 128.76 239.885 125.964 239.08Z" fill="#176C46"/>
<path d="M142.541 248.782L110.342 239.026C108.719 238.534 107.116 239.843 107.273 241.531L110.384 275.031C110.561 276.934 112.79 277.868 114.27 276.659L143.358 252.916C144.838 251.707 144.369 249.337 142.541 248.782Z" fill="#176C46"/>
<path d="M99.6011 270.639L93.0659 275.974L111.935 299.09L118.471 293.756L99.6011 270.639Z" fill="#85664F"/>
<path d="M84.3191 238.227L68.005 234.003C65.6463 233.393 63.3734 235.248 63.4992 237.681L64.3696 254.511C64.5223 257.462 67.9636 258.987 70.2524 257.119L85.6959 244.513C87.9851 242.644 87.1796 238.967 84.3191 238.227Z" fill="#42995F"/>
<path d="M103.605 250.138L74.38 241.724C71.9596 241.027 69.5884 242.963 69.7863 245.474L72.1773 275.792C72.4062 278.693 75.7994 280.143 78.0539 278.302L104.888 256.398C107.143 254.558 106.402 250.943 103.605 250.138Z" fill="#42995F"/>
<path d="M122.934 262.332L80.8224 249.572C78.371 248.829 75.9483 250.807 76.1851 253.357L80.2539 297.171C80.5209 300.046 83.8896 301.458 86.1263 299.632L124.169 268.578C126.406 266.752 125.698 263.17 122.934 262.332Z" fill="#42995F"/>
</g>
<rect x="182.639" y="13.6595" width="129.413" height="172.913" rx="11.4187" transform="rotate(14.0507 182.639 13.6595)" fill="white" stroke="#E5E8EB" stroke-width="1.0875"/>
<g clip-path="url(#clip1_1042_10941)">
<rect x="187.251" y="28.8271" width="113.1" height="121.8" rx="5.4375" transform="rotate(14.0507 187.251 28.8271)" fill="#DDECFF"/>
<g opacity="0.5">
<circle cx="182.5" cy="55.5" r="10.5" fill="white"/>
<circle cx="182.5" cy="68.5" r="10.5" fill="white"/>
<circle cx="193.5" cy="65.5" r="10.5" fill="white"/>
</g>
<g opacity="0.5">
<circle cx="277.573" cy="75.7111" r="10.5" transform="rotate(-42.3873 277.573 75.7111)" fill="white"/>
<circle cx="286.336" cy="85.3126" r="10.5" transform="rotate(-42.3873 286.336 85.3126)" fill="white"/>
<circle cx="292.439" cy="75.6818" r="10.5" transform="rotate(-42.3873 292.439 75.6818)" fill="white"/>
</g>
</g>
<rect x="196.639" y="178.659" width="129.413" height="172.913" rx="11.4187" transform="rotate(14.0507 196.639 178.659)" fill="white" stroke="#E5E8EB" stroke-width="1.0875"/>
<g clip-path="url(#clip2_1042_10941)">
<rect x="201.251" y="193.827" width="113.1" height="121.8" rx="5.4375" transform="rotate(14.0507 201.251 193.827)" fill="#FFEEC3"/>
<circle cx="259.5" cy="261.5" r="18.5" fill="white"/>
<path d="M237 277.5L174 262L158 311L285.5 345L314.5 262L274.5 277.5L268 265.5L237 277.5Z" fill="#FEDC96"/>
</g>
<g clip-path="url(#clip3_1042_10941)">
<path d="M181.425 94.1915L147.735 97.3896L148.947 110.157L182.637 106.959L181.425 94.1915Z" fill="#B0B8C1"/>
<path d="M100.306 112.269L284.473 94.786L295.145 207.209C295.206 207.847 294.738 208.416 294.102 208.476L111.088 225.849C110.452 225.909 109.886 225.439 109.826 224.801L99.2637 113.536C99.2031 112.897 99.6704 112.329 100.306 112.269Z" fill="#E5E8EB"/>
<path d="M191.046 79.7033L280.73 71.1898C281.555 71.1115 282.284 71.7171 282.363 72.5457L284.775 97.961L192.111 106.757L189.698 81.3421C189.62 80.5136 190.222 79.7815 191.046 79.7033Z" fill="#E5E8EB"/>
<path d="M232.283 92.7445L204.038 95.4258L204.833 103.801L233.078 101.12L232.283 92.7445Z" fill="#B0B8C1"/>
<path d="M275.093 78.7641L241.87 81.9179C241.398 81.9627 241.052 82.3834 241.097 82.8575L243.596 109.181C243.641 109.655 244.06 110.003 244.532 109.959L277.755 106.805C278.227 106.76 278.573 106.339 278.528 105.865L276.029 79.5415C275.984 79.0674 275.565 78.7193 275.093 78.7641Z" fill="#333D4B"/>
<path d="M264.779 92.7144C265.066 95.7391 262.855 98.4268 259.845 98.7125C256.835 98.9983 254.157 96.7746 253.87 93.7499C253.583 90.7252 255.794 88.0375 258.804 87.7518C261.815 87.466 264.492 89.6897 264.779 92.7144Z" fill="#6B7684"/>
<path d="M267.085 89.4471C267.221 90.8846 266.17 92.1629 264.739 92.2987C263.308 92.4345 262.035 91.3769 261.899 89.9394C261.762 88.5019 262.814 87.2236 264.244 87.0878C265.675 86.952 266.948 88.0096 267.085 89.4471Z" fill="#D1D6DB"/>
<path d="M125.001 105.563L113.109 106.692L113.519 111.015L125.411 109.886L125.001 105.563Z" fill="#80C84B"/>
<path d="M132.775 98.2127L104.103 100.935L104.953 109.899L133.626 107.177L132.775 98.2127Z" fill="#80C84B"/>
<path d="M286.556 116.746L101.237 134.338L108.326 209.017L293.645 191.425L286.556 116.746Z" fill="#333D4B"/>
<path d="M164.666 128.317L157.979 128.952L159.539 145.383L166.226 144.749L164.666 128.317Z" fill="#1778FB"/>
<path d="M173.095 151.909C173.656 146.551 169.787 141.747 164.453 141.179C159.12 140.611 154.341 144.494 153.78 149.852C153.22 155.21 157.089 160.014 162.423 160.582C167.756 161.151 172.535 157.268 173.095 151.909Z" fill="#1778FB"/>
<path d="M249.449 200.305C271.608 188.514 280.041 160.898 268.284 138.625C256.527 116.352 229.033 107.855 206.874 119.646C184.715 131.438 176.283 159.053 188.039 181.327C199.796 203.6 227.29 212.097 249.449 200.305Z" fill="#F2F4F6"/>
<path d="M231.939 199.812C253.837 197.733 269.897 178.211 267.808 156.208C265.719 134.205 246.274 118.053 224.375 120.132C202.476 122.21 186.417 141.733 188.506 163.736C190.595 185.739 210.04 201.89 231.939 199.812Z" fill="#E5E8EB"/>
<path d="M231.323 193.323C249.655 191.583 263.099 175.241 261.351 156.821C259.602 138.402 243.323 124.88 224.991 126.621C206.659 128.361 193.216 144.703 194.964 163.123C196.713 181.542 212.991 195.064 231.323 193.323Z" fill="#B0B8C1"/>
<path d="M230.97 189.595C247.255 188.05 259.198 173.531 257.645 157.168C256.091 140.805 241.63 128.794 225.345 130.34C209.059 131.885 197.117 146.404 198.67 162.767C200.223 179.13 214.684 191.141 230.97 189.595Z" fill="#333D4B"/>
<path d="M230.599 185.686C244.733 184.344 255.099 171.743 253.751 157.541C252.402 143.34 239.851 132.914 225.717 134.256C211.582 135.598 201.217 148.198 202.565 162.4C203.913 176.602 216.464 187.028 230.599 185.686Z" fill="#6B7684"/>
<path d="M243.273 153.187C243.684 157.519 240.521 161.365 236.209 161.774C231.897 162.184 228.066 159.002 227.655 154.669C227.244 150.337 230.408 146.491 234.719 146.082C239.031 145.673 242.862 148.854 243.273 153.187Z" fill="#B0B8C1"/>
<path d="M248.121 148.194C248.399 151.118 246.26 153.719 243.349 153.995C240.438 154.271 237.848 152.12 237.57 149.195C237.293 146.27 239.432 143.67 242.343 143.394C245.254 143.117 247.844 145.269 248.121 148.194Z" fill="white"/>
</g>
<mask id="path-43-outside-1_1042_10941" maskUnits="userSpaceOnUse" x="94.7189" y="68.882" width="202.569" height="159.32" fill="black">
<rect fill="white" x="94.7189" y="68.882" width="202.569" height="159.32"/>
<path fill-rule="evenodd" clip-rule="evenodd" d="M280.73 71.1889L191.046 79.7024C190.222 79.7807 189.619 80.5127 189.698 81.3413L191.809 103.582L182.401 104.475L181.425 94.1914L147.735 97.3895L148.711 107.673L125.411 109.885L125.23 107.974L133.626 107.177L132.775 98.2125L104.102 100.934L104.953 109.899L113.337 109.103L113.519 111.014L100.306 112.268C99.6701 112.329 99.2027 112.897 99.2634 113.536L101.238 134.338L101.237 134.338L108.326 209.017L108.327 209.017L109.825 224.8C109.886 225.439 110.452 225.909 111.088 225.849L294.102 208.476C294.738 208.416 295.205 207.847 295.145 207.209L284.774 97.9604L284.775 97.9602L282.363 72.5448C282.284 71.7163 281.555 71.1107 280.73 71.1889Z"/>
</mask>
<path d="M191.809 103.582L191.917 104.717L193.052 104.609L192.944 103.475L191.809 103.582ZM182.401 104.475L181.266 104.583L181.374 105.718L182.509 105.61L182.401 104.475ZM181.425 94.1914L182.559 94.0836L182.452 92.9489L181.317 93.0566L181.425 94.1914ZM147.735 97.3895L147.627 96.2547L146.492 96.3624L146.6 97.4972L147.735 97.3895ZM148.711 107.673L148.819 108.808L149.954 108.701L149.846 107.566L148.711 107.673ZM125.411 109.885L124.276 109.993L124.384 111.128L125.519 111.02L125.411 109.885ZM125.23 107.974L125.122 106.839L123.987 106.947L124.095 108.081L125.23 107.974ZM133.626 107.177L133.733 108.312L134.868 108.204L134.76 107.069L133.626 107.177ZM132.775 98.2125L133.909 98.1048L133.802 96.97L132.667 97.0777L132.775 98.2125ZM104.102 100.934L103.994 99.7996L102.859 99.9073L102.967 101.042L104.102 100.934ZM104.953 109.899L103.818 110.006L103.926 111.141L105.061 111.033L104.953 109.899ZM113.337 109.103L114.472 108.995L114.365 107.86L113.23 107.968L113.337 109.103ZM113.519 111.014L113.627 112.149L114.761 112.041L114.654 110.906L113.519 111.014ZM101.238 134.338L101.346 135.472L102.481 135.365L102.373 134.23L101.238 134.338ZM101.237 134.338L101.129 133.203L99.9945 133.311L100.102 134.446L101.237 134.338ZM108.326 209.017L107.191 209.124L107.299 210.259L108.434 210.151L108.326 209.017ZM108.327 209.017L109.462 208.909L109.354 207.774L108.219 207.882L108.327 209.017ZM284.774 97.9604L284.666 96.8256L283.531 96.9333L283.639 98.0681L284.774 97.9604ZM284.775 97.9602L284.883 99.095L286.018 98.9873L285.91 97.8525L284.775 97.9602ZM191.154 80.8372L280.838 72.3237L280.622 70.0542L190.938 78.5677L191.154 80.8372ZM190.833 81.2336C190.813 81.0266 190.961 80.8555 191.154 80.8372L190.938 78.5677C189.482 78.7059 188.426 79.9988 188.563 81.449L190.833 81.2336ZM192.944 103.475L190.833 81.2336L188.563 81.449L190.675 103.69L192.944 103.475ZM182.509 105.61L191.917 104.717L191.702 102.447L182.293 103.341L182.509 105.61ZM180.29 94.2991L181.266 104.583L183.536 104.368L182.559 94.0836L180.29 94.2991ZM147.843 98.5243L181.532 95.3262L181.317 93.0566L147.627 96.2547L147.843 98.5243ZM149.846 107.566L148.87 97.2818L146.6 97.4972L147.576 107.781L149.846 107.566ZM125.519 111.02L148.819 108.808L148.603 106.539L125.303 108.75L125.519 111.02ZM124.095 108.081L124.276 109.993L126.546 109.778L126.365 107.866L124.095 108.081ZM133.518 106.042L125.122 106.839L125.337 109.109L133.733 108.312L133.518 106.042ZM131.64 98.3202L132.491 107.285L134.76 107.069L133.909 98.1048L131.64 98.3202ZM104.21 102.069L132.882 99.3473L132.667 97.0777L103.994 99.7996L104.21 102.069ZM106.088 109.791L105.237 100.827L102.967 101.042L103.818 110.006L106.088 109.791ZM113.23 107.968L104.845 108.764L105.061 111.033L113.445 110.237L113.23 107.968ZM114.654 110.906L114.472 108.995L112.203 109.21L112.384 111.122L114.654 110.906ZM100.414 113.403L113.627 112.149L113.411 109.879L100.198 111.134L100.414 113.403ZM100.398 113.428C100.398 113.423 100.398 113.42 100.399 113.418C100.4 113.416 100.401 113.413 100.404 113.409C100.406 113.406 100.409 113.405 100.41 113.404C100.41 113.404 100.41 113.404 100.414 113.403L100.198 111.134C98.9306 111.254 98.0089 112.383 98.1286 113.644L100.398 113.428ZM102.373 134.23L100.398 113.428L98.1286 113.644L100.103 134.445L102.373 134.23ZM101.345 135.473L101.346 135.472L101.13 133.203L101.129 133.203L101.345 135.473ZM109.461 208.909L102.372 134.23L100.102 134.446L107.191 209.124L109.461 208.909ZM108.219 207.882L108.218 207.882L108.434 210.151L108.435 210.151L108.219 207.882ZM110.96 224.693L109.462 208.909L107.192 209.124L108.691 224.908L110.96 224.693ZM110.98 224.714C110.977 224.715 110.976 224.714 110.976 224.714C110.975 224.714 110.972 224.713 110.969 224.71C110.966 224.708 110.964 224.705 110.963 224.702C110.962 224.701 110.961 224.698 110.96 224.693L108.691 224.908C108.81 226.169 109.928 227.104 111.196 226.984L110.98 224.714ZM293.994 207.341L110.98 224.714L111.196 226.984L294.21 209.611L293.994 207.341ZM294.01 207.316C294.01 207.322 294.01 207.324 294.009 207.326C294.008 207.329 294.007 207.332 294.004 207.335C294.002 207.338 293.999 207.34 293.998 207.34C293.998 207.34 293.998 207.341 293.994 207.341L294.21 209.611C295.477 209.49 296.399 208.361 296.279 207.101L294.01 207.316ZM283.639 98.0681L294.01 207.316L296.279 207.101L285.909 97.8526L283.639 98.0681ZM284.667 96.8254L284.666 96.8256L284.882 99.0951L284.883 99.095L284.667 96.8254ZM281.228 72.6526L283.64 98.0679L285.91 97.8525L283.497 72.4371L281.228 72.6526ZM280.838 72.3237C281.031 72.3054 281.208 72.4456 281.228 72.6526L283.497 72.4371C283.36 70.987 282.079 69.9159 280.622 70.0542L280.838 72.3237Z" fill="#D1D6DB" mask="url(#path-43-outside-1_1042_10941)"/>
<defs>
<clipPath id="clip0_1042_10941">
<rect width="113.1" height="121.8" fill="white" transform="translate(41.2397 192.501) rotate(-35.0366)"/>
</clipPath>
<clipPath id="clip1_1042_10941">
<rect width="113.1" height="121.8" fill="white" transform="translate(187.251 28.8271) rotate(14.0507)"/>
</clipPath>
<clipPath id="clip2_1042_10941">
<rect width="113.1" height="121.8" fill="white" transform="translate(201.251 193.827) rotate(14.0507)"/>
</clipPath>
<clipPath id="clip3_1042_10941">
<rect width="186.152" height="137.926" fill="white" transform="translate(96.9004 88.6406) rotate(-5.42272)"/>
</clipPath>
</defs>
</svg>
