<svg width="393" height="334" viewBox="0 0 393 334" fill="none" xmlns="http://www.w3.org/2000/svg">
<rect x="-9.95625" y="160.48" width="129.413" height="172.913" rx="11.4187" fill="white" stroke="#E5E8EB" stroke-width="1.0875"/>
<g clip-path="url(#clip0_1042_11115)">
<rect x="-1.79993" y="174.074" width="113.1" height="121.8" rx="5.4375" fill="#FFEEC3"/>
<circle cx="71.1359" cy="225.581" r="18.5" transform="rotate(-14.0507 71.1359 225.581)" fill="white"/>
<path d="M53.1936 246.565L-11.6846 246.824L-15.3097 298.242L116.63 300.27L124.612 212.713L89.5716 237.46L80.3528 227.398L53.1936 246.565Z" fill="#FEDC96"/>
</g>
<rect x="133.544" y="160.48" width="129.413" height="172.913" rx="11.4187" fill="white" stroke="#E5E8EB" stroke-width="1.0875"/>
<g clip-path="url(#clip1_1042_11115)">
<rect x="142" y="174" width="113.1" height="121.8" rx="5.4375" fill="#DDECFF"/>
<path d="M197.194 246.565L132.315 246.824L128.69 298.242L260.63 300.27L268.612 212.713L233.572 237.46L224.353 227.398L197.194 246.565Z" fill="#4D97FC" fill-opacity="0.6"/>
<g opacity="0.5">
<circle cx="143.567" cy="201.102" r="10.5" transform="rotate(-14.0507 143.567 201.102)" fill="white"/>
<circle cx="146.723" cy="213.713" r="10.5" transform="rotate(-14.0507 146.723 213.713)" fill="white"/>
<circle cx="156.665" cy="208.133" r="10.5" transform="rotate(-14.0507 156.665 208.133)" fill="white"/>
</g>
<g opacity="0.5">
<circle cx="240.702" cy="197.628" r="10.5" transform="rotate(-56.4379 240.702 197.628)" fill="white"/>
<circle cx="251.535" cy="204.814" r="10.5" transform="rotate(-56.4379 251.535 204.814)" fill="white"/>
<circle cx="255.116" cy="193.99" r="10.5" transform="rotate(-56.4379 255.116 193.99)" fill="white"/>
</g>
<rect x="142" y="261" width="113" height="35" fill="#1778FB" fill-opacity="0.5"/>
</g>
<rect x="277.044" y="160.48" width="129.413" height="172.913" rx="11.4187" fill="white" stroke="#E5E8EB" stroke-width="1.0875"/>
<g clip-path="url(#clip2_1042_11115)">
<rect x="285.2" y="174.074" width="113.1" height="121.8" rx="5.4375" fill="#F2F4F6"/>
<path d="M345.51 249.801L281.124 257.789L283.652 309.273L414.894 295.565L412.385 207.681L380.544 236.427L370.191 227.534L345.51 249.801Z" fill="#DFE4E8"/>
<path d="M317.762 272.861L311.516 273.318L313.442 299.625L319.688 299.168L317.762 272.861Z" fill="#85664F"/>
<path d="M321.071 245.334L315.028 238.246C313.435 236.378 310.485 236.593 309.181 238.675L304.235 246.566C302.653 249.09 304.611 252.34 307.581 252.123L318.569 251.318C321.54 251.101 323.003 247.6 321.071 245.334Z" fill="#176C46"/>
<path d="M327.829 260.853L315.607 245.707C314.026 243.747 310.973 243.971 309.694 246.14L299.808 262.904C298.33 265.411 300.276 268.546 303.178 268.334L325.286 266.715C328.188 266.502 329.657 263.117 327.829 260.853Z" fill="#176C46"/>
<path d="M335.832 278.313L315.07 251.84C314.023 250.506 311.959 250.657 311.119 252.129L294.433 281.344C293.486 283.004 294.775 285.048 296.68 284.909L334.128 282.167C336.034 282.028 337.011 279.817 335.832 278.313Z" fill="#176C46"/>
<path d="M288.126 271.558L279.713 272.174L281.892 301.934L290.305 301.318L288.126 271.558Z" fill="#85664F"/>
<path d="M294.221 236.246L283.288 223.422C281.707 221.568 278.781 221.782 277.487 223.846L268.538 238.126C266.969 240.63 268.911 243.854 271.857 243.639L291.74 242.183C294.687 241.967 296.138 238.494 294.221 236.246Z" fill="#42995F"/>
<path d="M303.174 257.071L284.076 233.403C282.494 231.443 279.441 231.667 278.162 233.836L262.714 260.033C261.236 262.539 263.182 265.675 266.084 265.462L300.631 262.933C303.533 262.72 305.002 259.335 303.174 257.071Z" fill="#42995F"/>
<path d="M312 278.152L284.845 243.528C283.264 241.512 280.145 241.74 278.875 243.965L257.053 282.175C255.621 284.682 257.569 287.772 260.448 287.561L309.426 283.975C312.305 283.764 313.782 280.424 312 278.152Z" fill="#42995F"/>
</g>
<g clip-path="url(#clip3_1042_11115)">
<path d="M186.623 15.5146H152.782V28.3396H186.623V15.5146Z" fill="#B0B8C1"/>
<path d="M104.159 25.8457H289.153V138.774C289.153 139.415 288.634 139.937 287.996 139.937H104.159C103.52 139.937 103.001 139.415 103.001 138.774V27.0089C103.001 26.3671 103.52 25.8457 104.159 25.8457Z" fill="#E5E8EB"/>
<path d="M197.571 2H287.658C288.486 2 289.155 2.67183 289.155 3.5041V29.0337H196.074V3.5041C196.074 2.67183 196.742 2 197.571 2Z" fill="#E5E8EB"/>
<path d="M237.39 18.8799H209.018V27.2928H237.39V18.8799Z" fill="#B0B8C1"/>
<path d="M281.33 9.00879H247.957C247.483 9.00879 247.099 9.39488 247.099 9.87114V36.3133C247.099 36.7895 247.483 37.1756 247.957 37.1756H281.33C281.804 37.1756 282.188 36.7895 282.188 36.3133V9.87114C282.188 9.39488 281.804 9.00879 281.33 9.00879Z" fill="#333D4B"/>
<path d="M269.743 21.922C269.743 24.9603 267.288 27.427 264.265 27.427C261.241 27.427 258.786 24.9603 258.786 21.922C258.786 18.8837 261.241 16.417 264.265 16.417C267.288 16.417 269.743 18.8837 269.743 21.922Z" fill="#6B7684"/>
<path d="M272.348 18.8867C272.348 20.3306 271.18 21.5038 269.743 21.5038C268.306 21.5038 267.138 20.3306 267.138 18.8867C267.138 17.4427 268.306 16.2695 269.743 16.2695C271.18 16.2695 272.348 17.4427 272.348 18.8867Z" fill="#D1D6DB"/>
<path d="M129.377 21.5039H117.431V25.8458H129.377V21.5039Z" fill="#80C84B"/>
<path d="M137.811 14.9209H109.009V23.9255H137.811V14.9209Z" fill="#80C84B"/>
<path d="M289.152 47.9043H103V122.919H289.152V47.9043Z" fill="#333D4B"/>
<path d="M166.714 47.9043H159.997V64.4093H166.714V47.9043Z" fill="#1778FB"/>
<path d="M172.876 72.1872C173.941 66.906 170.543 61.7576 165.287 60.6879C160.031 59.6182 154.907 63.0323 153.842 68.3135C152.777 73.5947 156.175 78.7431 161.431 79.8128C166.688 80.8825 171.812 77.4684 172.876 72.1872Z" fill="#1778FB"/>
<path d="M244.314 127.583C267.488 117.938 278.493 91.243 268.894 67.9582C259.295 44.6735 232.727 33.6162 209.553 43.2611C186.379 52.9059 175.374 79.6006 184.973 102.885C194.572 126.17 221.14 137.227 244.314 127.583Z" fill="#F2F4F6"/>
<path d="M226.929 125.437C248.926 125.437 266.758 107.52 266.758 85.4176C266.758 63.3156 248.926 45.3984 226.929 45.3984C204.932 45.3984 187.1 63.3156 187.1 85.4176C187.1 107.52 204.932 125.437 226.929 125.437Z" fill="#E5E8EB"/>
<path d="M226.93 118.919C245.344 118.919 260.272 103.92 260.272 85.4174C260.272 66.9151 245.344 51.916 226.93 51.916C208.515 51.916 193.587 66.9151 193.587 85.4174C193.587 103.92 208.515 118.919 226.93 118.919Z" fill="#B0B8C1"/>
<path d="M226.93 115.174C243.288 115.174 256.55 101.849 256.55 85.4125C256.55 68.9759 243.288 55.6514 226.93 55.6514C210.571 55.6514 197.31 68.9759 197.31 85.4125C197.31 101.849 210.571 115.174 226.93 115.174Z" fill="#333D4B"/>
<path d="M226.93 111.247C241.129 111.247 252.638 99.6822 252.638 85.4164C252.638 71.1506 241.129 59.5859 226.93 59.5859C212.732 59.5859 201.223 71.1506 201.223 85.4164C201.223 99.6822 212.732 111.247 226.93 111.247Z" fill="#6B7684"/>
<path d="M242.619 80.0915C242.619 84.4433 239.106 87.973 234.775 87.973C230.444 87.973 226.931 84.4433 226.931 80.0915C226.931 75.7396 230.444 72.21 234.775 72.21C239.106 72.21 242.619 75.7396 242.619 80.0915Z" fill="#B0B8C1"/>
<path d="M247.917 75.5784C247.917 78.5164 245.542 80.903 242.618 80.903C239.694 80.903 237.319 78.5164 237.319 75.5784C237.319 72.6404 239.694 70.2539 242.618 70.2539C245.542 70.2539 247.917 72.6404 247.917 75.5784Z" fill="white"/>
</g>
<mask id="path-45-outside-1_1042_11115" maskUnits="userSpaceOnUse" x="101" y="0.000976562" width="190" height="142" fill="black">
<rect fill="white" x="101" y="0.000976562" width="190" height="142"/>
<path fill-rule="evenodd" clip-rule="evenodd" d="M287.658 2.00098H197.571C196.742 2.00098 196.074 2.67281 196.074 3.50508V25.846H186.623V15.5158H152.782V25.846H129.377V23.9259H137.811V14.9214H109.009V23.9259H117.431V25.846H104.159C103.52 25.846 103.001 26.3674 103.001 27.0092V47.9046H103V122.919H103.001V138.774C103.001 139.416 103.52 139.937 104.159 139.937H287.996C288.634 139.937 289.153 139.416 289.153 138.774V29.0347H289.155V3.50508C289.155 2.67281 288.486 2.00098 287.658 2.00098Z"/>
</mask>
<path d="M196.074 25.846V26.9859H197.214V25.846H196.074ZM186.623 25.846H185.483V26.9859H186.623V25.846ZM186.623 15.5158H187.763V14.3759H186.623V15.5158ZM152.782 15.5158V14.3759H151.642V15.5158H152.782ZM152.782 25.846V26.9859H153.922V25.846H152.782ZM129.377 25.846H128.237V26.9859H129.377V25.846ZM129.377 23.9259V22.786H128.237V23.9259H129.377ZM137.811 23.9259V25.0658H138.95V23.9259H137.811ZM137.811 14.9214H138.95V13.7815H137.811V14.9214ZM109.009 14.9214V13.7815H107.869V14.9214H109.009ZM109.009 23.9259H107.869V25.0658H109.009V23.9259ZM117.431 23.9259H118.571V22.786H117.431V23.9259ZM117.431 25.846V26.9859H118.571V25.846H117.431ZM103.001 47.9046V49.0445H104.141V47.9046H103.001ZM103 47.9046V46.7647H101.86V47.9046H103ZM103 122.919H101.86V124.059H103V122.919ZM103.001 122.919H104.141V121.779H103.001V122.919ZM289.153 29.0347V27.8948H288.014V29.0347H289.153ZM289.155 29.0347V30.1746H290.295V29.0347H289.155ZM197.571 3.14086H287.658V0.861094H197.571V3.14086ZM197.214 3.50508C197.214 3.29723 197.377 3.14086 197.571 3.14086V0.861094C196.108 0.861094 194.934 2.04839 194.934 3.50508H197.214ZM197.214 25.846V3.50508H194.934V25.846H197.214ZM186.623 26.9859H196.074V24.7061H186.623V26.9859ZM185.483 15.5158V25.846H187.763V15.5158H185.483ZM152.782 16.6557H186.623V14.3759H152.782V16.6557ZM153.922 25.846V15.5158H151.642V25.846H153.922ZM129.377 26.9859H152.782V24.7061H129.377V26.9859ZM128.237 23.9259V25.846H130.517V23.9259H128.237ZM137.811 22.786H129.377V25.0658H137.811V22.786ZM136.671 14.9214V23.9259H138.95V14.9214H136.671ZM109.009 16.0612H137.811V13.7815H109.009V16.0612ZM110.149 23.9259V14.9214H107.869V23.9259H110.149ZM117.431 22.786H109.009V25.0658H117.431V22.786ZM118.571 25.846V23.9259H116.291V25.846H118.571ZM104.159 26.9859H117.431V24.7061H104.159V26.9859ZM104.141 27.0092C104.141 27.0036 104.142 27.001 104.143 26.9994C104.144 26.997 104.146 26.9939 104.148 26.991C104.151 26.9881 104.154 26.9868 104.155 26.9864C104.155 26.9863 104.156 26.9859 104.159 26.9859V24.7061C102.886 24.7061 101.861 25.743 101.861 27.0092H104.141ZM104.141 47.9046V27.0092H101.861V47.9046H104.141ZM103 49.0445H103.001V46.7647H103V49.0445ZM104.14 122.919V47.9046H101.86V122.919H104.14ZM103.001 121.779H103V124.059H103.001V121.779ZM104.141 138.774V122.919H101.861V138.774H104.141ZM104.159 138.797C104.156 138.797 104.155 138.797 104.155 138.797C104.154 138.796 104.151 138.795 104.148 138.792C104.146 138.789 104.144 138.786 104.143 138.784C104.142 138.782 104.141 138.78 104.141 138.774H101.861C101.861 140.04 102.886 141.077 104.159 141.077V138.797ZM287.996 138.797H104.159V141.077H287.996V138.797ZM288.014 138.774C288.014 138.78 288.013 138.782 288.012 138.784C288.011 138.786 288.009 138.789 288.006 138.792C288.003 138.795 288.001 138.796 288 138.797C288 138.797 287.999 138.797 287.996 138.797V141.077C289.269 141.077 290.293 140.04 290.293 138.774H288.014ZM288.014 29.0347V138.774H290.293V29.0347H288.014ZM289.155 27.8948H289.153V30.1746H289.155V27.8948ZM288.015 3.50508V29.0347H290.295V3.50508H288.015ZM287.658 3.14086C287.851 3.14086 288.015 3.29723 288.015 3.50508H290.295C290.295 2.04839 289.121 0.861094 287.658 0.861094V3.14086Z" fill="#D1D6DB" mask="url(#path-45-outside-1_1042_11115)"/>
<defs>
<clipPath id="clip0_1042_11115">
<rect width="113.1" height="121.8" fill="white" transform="translate(-1.79993 174.074)"/>
</clipPath>
<clipPath id="clip1_1042_11115">
<rect width="113.1" height="121.8" fill="white" transform="translate(141.7 174.074)"/>
</clipPath>
<clipPath id="clip2_1042_11115">
<rect width="113.1" height="121.8" fill="white" transform="translate(285.2 174.074)"/>
</clipPath>
<clipPath id="clip3_1042_11115">
<rect width="186.152" height="137.926" fill="white" transform="translate(103.001 2.00098)"/>
</clipPath>
</defs>
</svg>
