<svg width="393" height="400" viewBox="0 0 393 400" fill="none" xmlns="http://www.w3.org/2000/svg">
<g clip-path="url(#clip0_478_22969)">
<path d="M189.801 131.557H182.568V162.021H189.801V131.557Z" fill="#85664F"/>
<path d="M195.933 100.128L189.571 91.4546C187.893 89.1675 184.477 89.1675 182.799 91.4546L176.437 100.128C174.402 102.901 176.382 106.81 179.822 106.81H192.547C195.987 106.81 197.967 102.901 195.933 100.128Z" fill="#176C46"/>
<path d="M202.41 118.572L189.609 100.096C187.952 97.7049 184.417 97.7049 182.76 100.096L169.96 118.572C168.046 121.335 170.023 125.11 173.384 125.11H198.985C202.346 125.11 204.324 121.335 202.41 118.572Z" fill="#176C46"/>
<path d="M210.155 139.36L188.472 107.115C187.38 105.49 184.989 105.49 183.897 107.115L162.214 139.36C160.983 141.191 162.295 143.655 164.502 143.655H207.868C210.075 143.655 211.387 141.191 210.155 139.36Z" fill="#176C46"/>
<path d="M155.774 127.557H146.031V162.02H155.774V127.557Z" fill="#85664F"/>
<path d="M165.773 87.395L154.261 71.7017C152.597 69.4328 149.208 69.4328 147.544 71.7017L136.031 87.395C134.013 90.1466 135.978 94.0247 139.39 94.0247H162.414C165.827 94.0247 167.792 90.1466 165.773 87.395Z" fill="#42995F"/>
<path d="M174.33 112.137L154.327 83.2651C152.67 80.8739 149.135 80.8739 147.478 83.2651L127.475 112.137C125.561 114.9 127.538 118.675 130.899 118.675H170.906C174.267 118.675 176.244 114.9 174.33 112.137Z" fill="#42995F"/>
<path d="M182.718 137.165L154.359 94.9925C152.708 92.5376 149.096 92.5376 147.446 94.9925L119.087 137.165C117.226 139.932 119.209 143.656 122.544 143.656H179.261C182.596 143.655 184.579 139.932 182.718 137.165Z" fill="#42995F"/>
<path d="M39.8042 139.824L218.819 318.839C229.566 329.586 244.142 335.624 259.341 335.624H396.541" stroke="#80C84B" stroke-width="15.2819" stroke-linecap="round" stroke-linejoin="round"/>
<circle cx="39.3268" cy="137.914" r="11.4614" fill="white" stroke="#80C84B" stroke-width="5.73072"/>
<path d="M39.645 341.542L235.886 191.433V97.1002C235.886 76.0011 252.989 58.8965 274.088 58.8954L333.026 58.8924" stroke="#FBB12C" stroke-width="15.2819" stroke-linecap="round" stroke-linejoin="round"/>
<circle cx="39.3268" cy="341.219" r="11.4614" fill="white" stroke="#FBB12C" stroke-width="5.73072"/>
<circle cx="74.6661" cy="314.611" r="2.86536" fill="white"/>
<circle cx="68.9357" cy="169.433" r="2.86536" fill="white"/>
<circle cx="104.275" cy="204.773" r="2.86536" fill="white"/>
<circle cx="189.28" cy="288.823" r="2.86536" fill="white"/>
<circle cx="237.036" cy="330.848" r="2.86536" fill="white"/>
<circle cx="315.356" cy="335.624" r="2.86536" fill="white"/>
<circle cx="248.498" cy="69.1456" r="2.86536" fill="white"/>
<circle cx="287.658" cy="58.6388" r="2.86536" fill="white"/>
<circle cx="110.005" cy="287.868" r="2.86536" fill="white"/>
<circle cx="336.369" cy="58.6393" r="11.4614" fill="white" stroke="#FBB12C" stroke-width="5.73072"/>
<path d="M101.41 265.566C101.41 254.937 110.026 246.32 120.655 246.32H405.615V284.812H120.655C110.026 284.812 101.41 276.195 101.41 265.566Z" fill="#6B7684" fill-opacity="0.1"/>
<path d="M169.81 115.946H407V270.532H134.457C126.228 270.532 119.557 263.861 119.557 255.633V218.18C119.557 216.264 119.926 214.366 120.645 212.589L155.999 125.255C158.277 119.629 163.74 115.946 169.81 115.946Z" fill="#D1D6DB"/>
<path d="M119.557 230.179C127.1 230.179 133.215 236.294 133.215 243.837V244.853C133.215 245.663 132.558 246.32 131.747 246.32H119.557V230.179Z" fill="white"/>
<path d="M262.934 115.946H407V270.532H227.581C219.352 270.532 212.681 263.861 212.681 255.633V218.18C212.681 216.264 213.05 214.366 213.769 212.589L249.123 125.255C251.401 119.629 256.864 115.946 262.934 115.946Z" fill="#B0B8C1"/>
<path d="M154.97 127.98L154.99 127.931L155.001 127.878C156.402 121.283 162.226 116.567 168.968 116.567H256.59L235.179 204.351C233.348 211.858 226.622 217.141 218.894 217.141H120.177V216.844C120.177 215.864 120.278 214.887 120.478 213.928L154.97 127.98Z" fill="#F2F4F6" stroke="#E5E8EB" stroke-width="1.24166"/>
<path d="M256.361 115.946C249.326 115.946 243.249 120.867 241.787 127.749L213.006 213.747C212.79 214.765 212.681 215.803 212.681 216.844V217.762H218.894C226.908 217.762 233.883 212.283 235.782 204.498L267.887 115.946H256.361Z" fill="#D1D6DB"/>
<path d="M277.585 137.774C278.115 135.533 280.115 133.95 282.418 133.95H407V202.241H268.625C265.42 202.241 263.054 199.251 263.791 196.132L277.585 137.774Z" fill="#6B7684"/>
<path d="M212.681 230.179H200.038C191.934 230.179 185.364 236.749 185.364 244.853C185.364 245.663 186.021 246.32 186.832 246.32H212.681V230.179Z" fill="white"/>
<path d="M212.681 230.179H224.476C228.934 230.179 232.547 233.792 232.547 238.249C232.547 242.707 228.934 246.32 224.476 246.32H212.681V230.179Z" fill="#D1D6DB"/>
<path fill-rule="evenodd" clip-rule="evenodd" d="M406.379 270.533H134.457C127.74 270.533 122.061 266.088 120.201 259.979H406.379V270.533Z" fill="#B0B8C1"/>
<path fill-rule="evenodd" clip-rule="evenodd" d="M227.581 270.533H406.379V259.979H213.325C215.185 266.088 220.864 270.533 227.581 270.533Z" fill="#8B95A1"/>
<path d="M83.0883 256.736C83.0883 254.116 75.3419 251.992 65.7878 251.992C56.2337 251.992 48.4873 254.116 48.4873 256.736C48.4873 259.356 56.2337 261.48 65.7878 261.48C75.3419 261.48 83.0883 259.356 83.0883 256.736Z" fill="#F2F4F6"/>
<path d="M88.5924 219.865C95.0417 208.697 92.5398 194.509 82.6595 186.217C72.7793 177.928 58.3754 177.928 48.4951 186.217C38.6149 194.509 36.113 208.697 42.5623 219.865L42.5882 219.909C43.2085 220.973 43.9015 221.996 44.6619 222.964L61.4534 242.901C62.6447 244.092 63.143 245.288 65.5981 245.288C67.2799 245.195 68.8189 244.31 69.7454 242.901L86.5499 222.847C87.2662 221.928 87.9176 220.963 88.5015 219.956L88.5924 219.865Z" fill="#1778FB"/>
<path d="M76.202 206.578C76.202 212.448 71.4423 217.208 65.5717 217.208C59.7012 217.208 54.9414 212.448 54.9414 206.578C54.9414 200.707 59.7012 195.947 65.5717 195.947C71.4423 195.947 76.202 200.707 76.202 206.578Z" fill="#0956BE"/>
</g>
<defs>
<clipPath id="clip0_478_22969">
<rect width="393" height="400" fill="white"/>
</clipPath>
</defs>
</svg>
